<?xml version="1.0" encoding="UTF-8" standalone="no"?>
<!DOCTYPE svg PUBLIC "-//W3C//DTD SVG 1.1//EN" "http://www.w3.org/Graphics/SVG/1.1/DTD/svg11.dtd">
<svg xmlns="http://www.w3.org/2000/svg" version="1.1" viewBox="0 0 166 185">
<g stroke-width="2.00" fill="none" stroke-linecap="butt">
<path stroke="#92c8e5" vector-effect="non-scaling-stroke" d="
  M 31.42 47.66
  A 0.37 0.36 4.3 0 1 31.83 48.13
  Q 21.29 80.25 10.91 112.35
  C 7.65 122.45 15.30 133.43 23.28 138.00
  C 39.50 147.31 62.39 136.81 63.14 117.45
  Q 63.23 114.95 62.01 111.20
  Q 51.52 79.05 40.96 46.85
  A 0.35 0.35 0.0 0 1 41.25 46.40
  Q 61.17 44.03 81.23 43.71
  A 0.52 0.52 0.0 0 1 81.75 44.23
  L 81.75 155.71
  A 0.49 0.49 0.0 0 1 81.27 156.20
  Q 73.38 156.30 65.50 156.35
  C 60.72 156.39 58.68 165.56 57.22 169.21
  C 55.65 173.13 57.03 175.25 61.35 175.25
  Q 85.17 175.26 108.99 175.24
  C 117.40 175.23 110.49 164.42 108.74 159.40
  Q 107.65 156.27 104.25 156.26
  Q 96.31 156.25 89.48 156.24
  A 1.72 1.72 0.0 0 1 87.76 154.52
  L 87.76 44.48
  A 0.77 0.76 -89.6 0 1 88.53 43.71
  Q 108.28 43.90 127.88 46.35
  A 0.81 0.80 -77.6 0 1 128.54 47.39
  Q 118.10 79.33 107.40 111.83
  C 104.10 121.84 111.13 132.87 119.46 137.82
  C 137.03 148.27 157.37 136.53 159.75 116.90
  Q 159.92 115.54 159.49 114.23
  L 137.88 48.26
  A 0.32 0.31 83.0 0 1 138.20 47.85
  C 140.36 48.02 153.43 51.44 150.34 44.92
  C 148.10 40.19 96.59 37.75 89.05 37.64
  A 1.35 1.35 0.0 0 1 87.72 36.26
  L 87.88 27.98
  A 0.97 0.96 -12.6 0 1 88.42 27.13
  C 99.42 21.68 95.28 6.04 83.63 7.64
  C 74.79 8.86 71.47 19.68 78.57 25.50
  C 79.37 26.16 80.61 26.46 81.41 27.35
  A 1.37 1.33 -66.5 0 1 81.75 28.25
  L 81.75 36.94
  A 0.66 0.66 0.0 0 1 81.10 37.60
  Q 52.34 38.05 23.97 42.76
  C 21.25 43.21 19.09 43.19 18.97 46.62
  Q 18.86 49.79 21.98 49.26
  L 31.42 47.66"
/>
<path stroke="#92c8e5" vector-effect="non-scaling-stroke" d="
  M 88.87 17.62
  A 4.03 4.03 0.0 0 0 84.84 13.59
  A 4.03 4.03 0.0 0 0 80.81 17.62
  A 4.03 4.03 0.0 0 0 84.84 21.65
  A 4.03 4.03 0.0 0 0 88.87 17.62"
/>
<path stroke="#92c8e5" vector-effect="non-scaling-stroke" d="
  M 17.44 111.63
  A 0.39 0.39 0.0 0 0 17.81 112.14
  L 55.35 112.14
  A 0.39 0.39 0.0 0 0 55.72 111.63
  L 36.95 54.17
  A 0.39 0.39 0.0 0 0 36.21 54.17
  L 17.44 111.63"
/>
<path stroke="#92c8e5" vector-effect="non-scaling-stroke" d="
  M 113.87 111.71
  A 0.32 0.32 0.0 0 0 114.18 112.13
  L 151.96 112.13
  A 0.32 0.32 0.0 0 0 152.27 111.71
  L 133.37 54.08
  A 0.32 0.32 0.0 0 0 132.77 54.08
  L 113.87 111.71"
/>
<path stroke="#92c8e5" vector-effect="non-scaling-stroke" d="
  M 16.25 118.63
  C 21.32 141.04 51.95 141.12 56.94 118.78
  A 0.43 0.43 0.0 0 0 56.52 118.25
  L 16.55 118.25
  A 0.31 0.31 0.0 0 0 16.25 118.63"
/>
<path stroke="#92c8e5" vector-effect="non-scaling-stroke" d="
  M 119.44 130.31
  C 131.87 141.48 149.70 134.06 153.40 118.73
  A 0.39 0.38 -82.9 0 0 153.03 118.25
  L 113.27 118.25
  A 0.43 0.43 0.0 0 0 112.85 118.75
  Q 114.00 125.43 119.44 130.31"
/>
<path stroke="#92c8e5" vector-effect="non-scaling-stroke" d="
  M 79.06 162.44
  Q 71.12 162.17 66.97 162.58
  A 0.95 0.95 0.0 0 0 66.18 163.18
  L 63.99 168.79
  A 0.34 0.33 -79.2 0 0 64.30 169.25
  L 105.55 169.25
  A 0.38 0.37 -10.7 0 0 105.90 168.74
  L 103.62 163.00
  A 0.77 0.77 0.0 0 0 102.90 162.51
  Q 82.75 162.56 79.06 162.44"
/>
</g>
<path fill="#ffffff" d="
  M 0.00 0.00
  L 166.00 0.00
  L 166.00 185.00
  L 0.00 185.00
  L 0.00 0.00
  Z
  M 31.42 47.66
  A 0.37 0.36 4.3 0 1 31.83 48.13
  Q 21.29 80.25 10.91 112.35
  C 7.65 122.45 15.30 133.43 23.28 138.00
  C 39.50 147.31 62.39 136.81 63.14 117.45
  Q 63.23 114.95 62.01 111.20
  Q 51.52 79.05 40.96 46.85
  A 0.35 0.35 0.0 0 1 41.25 46.40
  Q 61.17 44.03 81.23 43.71
  A 0.52 0.52 0.0 0 1 81.75 44.23
  L 81.75 155.71
  A 0.49 0.49 0.0 0 1 81.27 156.20
  Q 73.38 156.30 65.50 156.35
  C 60.72 156.39 58.68 165.56 57.22 169.21
  C 55.65 173.13 57.03 175.25 61.35 175.25
  Q 85.17 175.26 108.99 175.24
  C 117.40 175.23 110.49 164.42 108.74 159.40
  Q 107.65 156.27 104.25 156.26
  Q 96.31 156.25 89.48 156.24
  A 1.72 1.72 0.0 0 1 87.76 154.52
  L 87.76 44.48
  A 0.77 0.76 -89.6 0 1 88.53 43.71
  Q 108.28 43.90 127.88 46.35
  A 0.81 0.80 -77.6 0 1 128.54 47.39
  Q 118.10 79.33 107.40 111.83
  C 104.10 121.84 111.13 132.87 119.46 137.82
  C 137.03 148.27 157.37 136.53 159.75 116.90
  Q 159.92 115.54 159.49 114.23
  L 137.88 48.26
  A 0.32 0.31 83.0 0 1 138.20 47.85
  C 140.36 48.02 153.43 51.44 150.34 44.92
  C 148.10 40.19 96.59 37.75 89.05 37.64
  A 1.35 1.35 0.0 0 1 87.72 36.26
  L 87.88 27.98
  A 0.97 0.96 -12.6 0 1 88.42 27.13
  C 99.42 21.68 95.28 6.04 83.63 7.64
  C 74.79 8.86 71.47 19.68 78.57 25.50
  C 79.37 26.16 80.61 26.46 81.41 27.35
  A 1.37 1.33 -66.5 0 1 81.75 28.25
  L 81.75 36.94
  A 0.66 0.66 0.0 0 1 81.10 37.60
  Q 52.34 38.05 23.97 42.76
  C 21.25 43.21 19.09 43.19 18.97 46.62
  Q 18.86 49.79 21.98 49.26
  L 31.42 47.66
  Z"
/>
<path fill="#2491ca" d="
  M 31.42 47.66
  L 21.98 49.26
  Q 18.86 49.79 18.97 46.62
  C 19.09 43.19 21.25 43.21 23.97 42.76
  Q 52.34 38.05 81.10 37.60
  A 0.66 0.66 0.0 0 0 81.75 36.94
  L 81.75 28.25
  A 1.37 1.33 -66.5 0 0 81.41 27.35
  C 80.61 26.46 79.37 26.16 78.57 25.50
  C 71.47 19.68 74.79 8.86 83.63 7.64
  C 95.28 6.04 99.42 21.68 88.42 27.13
  A 0.97 0.96 -12.6 0 0 87.88 27.98
  L 87.72 36.26
  A 1.35 1.35 0.0 0 0 89.05 37.64
  C 96.59 37.75 148.10 40.19 150.34 44.92
  C 153.43 51.44 140.36 48.02 138.20 47.85
  A 0.32 0.31 83.0 0 0 137.88 48.26
  L 159.49 114.23
  Q 159.92 115.54 159.75 116.90
  C 157.37 136.53 137.03 148.27 119.46 137.82
  C 111.13 132.87 104.10 121.84 107.40 111.83
  Q 118.10 79.33 128.54 47.39
  A 0.81 0.80 -77.6 0 0 127.88 46.35
  Q 108.28 43.90 88.53 43.71
  A 0.77 0.76 -89.6 0 0 87.76 44.48
  L 87.76 154.52
  A 1.72 1.72 0.0 0 0 89.48 156.24
  Q 96.31 156.25 104.25 156.26
  Q 107.65 156.27 108.74 159.40
  C 110.49 164.42 117.40 175.23 108.99 175.24
  Q 85.17 175.26 61.35 175.25
  C 57.03 175.25 55.65 173.13 57.22 169.21
  C 58.68 165.56 60.72 156.39 65.50 156.35
  Q 73.38 156.30 81.27 156.20
  A 0.49 0.49 0.0 0 0 81.75 155.71
  L 81.75 44.23
  A 0.52 0.52 0.0 0 0 81.23 43.71
  Q 61.17 44.03 41.25 46.40
  A 0.35 0.35 0.0 0 0 40.96 46.85
  Q 51.52 79.05 62.01 111.20
  Q 63.23 114.95 63.14 117.45
  C 62.39 136.81 39.50 147.31 23.28 138.00
  C 15.30 133.43 7.65 122.45 10.91 112.35
  Q 21.29 80.25 31.83 48.13
  A 0.37 0.36 4.3 0 0 31.42 47.66
  Z
  M 88.87 17.62
  A 4.03 4.03 0.0 0 0 84.84 13.59
  A 4.03 4.03 0.0 0 0 80.81 17.62
  A 4.03 4.03 0.0 0 0 84.84 21.65
  A 4.03 4.03 0.0 0 0 88.87 17.62
  Z
  M 17.44 111.63
  A 0.39 0.39 0.0 0 0 17.81 112.14
  L 55.35 112.14
  A 0.39 0.39 0.0 0 0 55.72 111.63
  L 36.95 54.17
  A 0.39 0.39 0.0 0 0 36.21 54.17
  L 17.44 111.63
  Z
  M 113.87 111.71
  A 0.32 0.32 0.0 0 0 114.18 112.13
  L 151.96 112.13
  A 0.32 0.32 0.0 0 0 152.27 111.71
  L 133.37 54.08
  A 0.32 0.32 0.0 0 0 132.77 54.08
  L 113.87 111.71
  Z
  M 16.25 118.63
  C 21.32 141.04 51.95 141.12 56.94 118.78
  A 0.43 0.43 0.0 0 0 56.52 118.25
  L 16.55 118.25
  A 0.31 0.31 0.0 0 0 16.25 118.63
  Z
  M 119.44 130.31
  C 131.87 141.48 149.70 134.06 153.40 118.73
  A 0.39 0.38 -82.9 0 0 153.03 118.25
  L 113.27 118.25
  A 0.43 0.43 0.0 0 0 112.85 118.75
  Q 114.00 125.43 119.44 130.31
  Z
  M 79.06 162.44
  Q 71.12 162.17 66.97 162.58
  A 0.95 0.95 0.0 0 0 66.18 163.18
  L 63.99 168.79
  A 0.34 0.33 -79.2 0 0 64.30 169.25
  L 105.55 169.25
  A 0.38 0.37 -10.7 0 0 105.90 168.74
  L 103.62 163.00
  A 0.77 0.77 0.0 0 0 102.90 162.51
  Q 82.75 162.56 79.06 162.44
  Z"
/>
<circle fill="#ffffff" cx="84.84" cy="17.62" r="4.03"/>
<path fill="#ffffff" d="
  M 17.44 111.63
  L 36.21 54.17
  A 0.39 0.39 0.0 0 1 36.95 54.17
  L 55.72 111.63
  A 0.39 0.39 0.0 0 1 55.35 112.14
  L 17.81 112.14
  A 0.39 0.39 0.0 0 1 17.44 111.63
  Z"
/>
<path fill="#ffffff" d="
  M 113.87 111.71
  L 132.77 54.08
  A 0.32 0.32 0.0 0 1 133.37 54.08
  L 152.27 111.71
  A 0.32 0.32 0.0 0 1 151.96 112.13
  L 114.18 112.13
  A 0.32 0.32 0.0 0 1 113.87 111.71
  Z"
/>
<path fill="#ffffff" d="
  M 56.94 118.78
  C 51.95 141.12 21.32 141.04 16.25 118.63
  A 0.31 0.31 0.0 0 1 16.55 118.25
  L 56.52 118.25
  A 0.43 0.43 0.0 0 1 56.94 118.78
  Z"
/>
<path fill="#ffffff" d="
  M 119.44 130.31
  Q 114.00 125.43 112.85 118.75
  A 0.43 0.43 0.0 0 1 113.27 118.25
  L 153.03 118.25
  A 0.39 0.38 -82.9 0 1 153.40 118.73
  C 149.70 134.06 131.87 141.48 119.44 130.31
  Z"
/>
<path fill="#ffffff" d="
  M 79.06 162.44
  Q 82.75 162.56 102.90 162.51
  A 0.77 0.77 0.0 0 1 103.62 163.00
  L 105.90 168.74
  A 0.38 0.37 -10.7 0 1 105.55 169.25
  L 64.30 169.25
  A 0.34 0.33 -79.2 0 1 63.99 168.79
  L 66.18 163.18
  A 0.95 0.95 0.0 0 1 66.97 162.58
  Q 71.12 162.17 79.06 162.44
  Z"
/>
</svg>
