<?xml version="1.0" encoding="UTF-8" standalone="no"?>
<!DOCTYPE svg PUBLIC "-//W3C//DTD SVG 1.1//EN" "http://www.w3.org/Graphics/SVG/1.1/DTD/svg11.dtd">
<svg xmlns="http://www.w3.org/2000/svg" version="1.1" viewBox="0 0 164 162">
<g stroke-width="2.00" fill="none" stroke-linecap="butt">
<path stroke="#92c8e5" vector-effect="non-scaling-stroke" d="
  M 90.64 77.23
  L 130.86 37.02
  A 1.94 1.94 0.0 0 1 132.81 36.54
  L 138.55 38.31
  A 0.91 0.91 0.0 0 0 139.45 38.10
  L 160.16 18.40
  A 0.40 0.39 31.8 0 0 160.00 17.74
  L 149.24 14.48
  A 0.72 0.71 -88.6 0 1 148.77 13.98
  L 146.10 3.23
  A 0.47 0.46 -28.7 0 0 145.33 3.01
  L 124.75 22.48
  A 0.99 0.98 -28.5 0 0 124.47 23.42
  L 126.50 31.94
  A 1.01 1.01 0.0 0 1 126.23 32.89
  L 86.42 72.70
  A 0.75 0.74 -54.2 0 1 85.56 72.84
  Q 73.75 66.93 64.91 74.06
  C 58.64 79.12 56.44 87.21 59.59 94.66
  C 68.95 116.82 103.66 101.27 90.54 77.91
  A 0.58 0.56 -37.5 0 1 90.64 77.23"
/>
<path stroke="#92c8e5" vector-effect="non-scaling-stroke" d="
  M 118.80 56.87
  A 0.96 0.96 0.0 0 0 118.68 58.09
  C 149.65 103.55 98.70 159.68 50.55 133.44
  C 25.12 119.58 16.29 87.09 30.41 62.16
  C 45.79 35.00 79.97 27.77 105.73 44.99
  A 0.63 0.63 0.0 0 0 106.54 44.91
  L 116.13 34.99
  A 0.44 0.44 0.0 0 0 116.08 34.33
  C 81.57 8.78 32.77 20.70 14.85 60.12
  C -1.59 96.31 16.74 138.05 54.12 151.10
  C 115.82 172.64 169.07 100.08 129.16 47.49
  A 0.47 0.46 48.9 0 0 128.47 47.44
  L 118.80 56.87"
/>
<path stroke="#92c8e5" vector-effect="non-scaling-stroke" d="
  M 103.03 72.68
  A 0.75 0.74 54.4 0 0 102.89 73.55
  C 111.81 91.10 102.44 111.88 83.72 117.21
  C 71.06 120.81 56.35 114.77 49.81 103.71
  C 33.77 76.61 62.09 47.82 90.07 60.58
  A 0.78 0.77 34.4 0 0 90.95 60.42
  L 97.76 53.62
  A 0.51 0.51 0.0 0 0 97.66 52.82
  C 61.45 30.72 19.30 70.75 39.53 107.29
  C 51.58 129.04 79.08 135.77 99.67 121.40
  C 117.51 108.94 122.15 84.67 110.72 65.91
  A 0.43 0.43 0.0 0 0 110.05 65.83
  L 103.03 72.68"
/>
</g>
<path fill="#ffffff" d="
  M 0.00 0.00
  L 164.00 0.00
  L 164.00 162.00
  L 0.00 162.00
  L 0.00 0.00
  Z
  M 90.64 77.23
  L 130.86 37.02
  A 1.94 1.94 0.0 0 1 132.81 36.54
  L 138.55 38.31
  A 0.91 0.91 0.0 0 0 139.45 38.10
  L 160.16 18.40
  A 0.40 0.39 31.8 0 0 160.00 17.74
  L 149.24 14.48
  A 0.72 0.71 -88.6 0 1 148.77 13.98
  L 146.10 3.23
  A 0.47 0.46 -28.7 0 0 145.33 3.01
  L 124.75 22.48
  A 0.99 0.98 -28.5 0 0 124.47 23.42
  L 126.50 31.94
  A 1.01 1.01 0.0 0 1 126.23 32.89
  L 86.42 72.70
  A 0.75 0.74 -54.2 0 1 85.56 72.84
  Q 73.75 66.93 64.91 74.06
  C 58.64 79.12 56.44 87.21 59.59 94.66
  C 68.95 116.82 103.66 101.27 90.54 77.91
  A 0.58 0.56 -37.5 0 1 90.64 77.23
  Z
  M 118.80 56.87
  A 0.96 0.96 0.0 0 0 118.68 58.09
  C 149.65 103.55 98.70 159.68 50.55 133.44
  C 25.12 119.58 16.29 87.09 30.41 62.16
  C 45.79 35.00 79.97 27.77 105.73 44.99
  A 0.63 0.63 0.0 0 0 106.54 44.91
  L 116.13 34.99
  A 0.44 0.44 0.0 0 0 116.08 34.33
  C 81.57 8.78 32.77 20.70 14.85 60.12
  C -1.59 96.31 16.74 138.05 54.12 151.10
  C 115.82 172.64 169.07 100.08 129.16 47.49
  A 0.47 0.46 48.9 0 0 128.47 47.44
  L 118.80 56.87
  Z
  M 103.03 72.68
  A 0.75 0.74 54.4 0 0 102.89 73.55
  C 111.81 91.10 102.44 111.88 83.72 117.21
  C 71.06 120.81 56.35 114.77 49.81 103.71
  C 33.77 76.61 62.09 47.82 90.07 60.58
  A 0.78 0.77 34.4 0 0 90.95 60.42
  L 97.76 53.62
  A 0.51 0.51 0.0 0 0 97.66 52.82
  C 61.45 30.72 19.30 70.75 39.53 107.29
  C 51.58 129.04 79.08 135.77 99.67 121.40
  C 117.51 108.94 122.15 84.67 110.72 65.91
  A 0.43 0.43 0.0 0 0 110.05 65.83
  L 103.03 72.68
  Z"
/>
<path fill="#2491ca" d="
  M 90.64 77.23
  A 0.58 0.56 -37.5 0 0 90.54 77.91
  C 103.66 101.27 68.95 116.82 59.59 94.66
  C 56.44 87.21 58.64 79.12 64.91 74.06
  Q 73.75 66.93 85.56 72.84
  A 0.75 0.74 -54.2 0 0 86.42 72.70
  L 126.23 32.89
  A 1.01 1.01 0.0 0 0 126.50 31.94
  L 124.47 23.42
  A 0.99 0.98 -28.5 0 1 124.75 22.48
  L 145.33 3.01
  A 0.47 0.46 -28.7 0 1 146.10 3.23
  L 148.77 13.98
  A 0.72 0.71 -88.6 0 0 149.24 14.48
  L 160.00 17.74
  A 0.40 0.39 31.8 0 1 160.16 18.40
  L 139.45 38.10
  A 0.91 0.91 0.0 0 1 138.55 38.31
  L 132.81 36.54
  A 1.94 1.94 0.0 0 0 130.86 37.02
  L 90.64 77.23
  Z"
/>
<path fill="#2491ca" d="
  M 118.80 56.87
  L 128.47 47.44
  A 0.47 0.46 48.9 0 1 129.16 47.49
  C 169.07 100.08 115.82 172.64 54.12 151.10
  C 16.74 138.05 -1.59 96.31 14.85 60.12
  C 32.77 20.70 81.57 8.78 116.08 34.33
  A 0.44 0.44 0.0 0 1 116.13 34.99
  L 106.54 44.91
  A 0.63 0.63 0.0 0 1 105.73 44.99
  C 79.97 27.77 45.79 35.00 30.41 62.16
  C 16.29 87.09 25.12 119.58 50.55 133.44
  C 98.70 159.68 149.65 103.55 118.68 58.09
  A 0.96 0.96 0.0 0 1 118.80 56.87
  Z"
/>
<path fill="#2491ca" d="
  M 103.03 72.68
  L 110.05 65.83
  A 0.43 0.43 0.0 0 1 110.72 65.91
  C 122.15 84.67 117.51 108.94 99.67 121.40
  C 79.08 135.77 51.58 129.04 39.53 107.29
  C 19.30 70.75 61.45 30.72 97.66 52.82
  A 0.51 0.51 0.0 0 1 97.76 53.62
  L 90.95 60.42
  A 0.78 0.77 34.4 0 1 90.07 60.58
  C 62.09 47.82 33.77 76.61 49.81 103.71
  C 56.35 114.77 71.06 120.81 83.72 117.21
  C 102.44 111.88 111.81 91.10 102.89 73.55
  A 0.75 0.74 54.4 0 1 103.03 72.68
  Z"
/>
</svg>
