<?xml version="1.0" encoding="UTF-8" standalone="no"?>
<!DOCTYPE svg PUBLIC "-//W3C//DTD SVG 1.1//EN" "http://www.w3.org/Graphics/SVG/1.1/DTD/svg11.dtd">
<svg xmlns="http://www.w3.org/2000/svg" version="1.1" viewBox="0 0 152 171">
<g stroke-width="2.00" fill="none" stroke-linecap="butt">
<path stroke="#92c8e5" vector-effect="non-scaling-stroke" d="
  M 78.01 4.84
  A 0.59 0.59 0.0 0 0 77.42 4.25
  L 73.84 4.25
  A 0.59 0.59 0.0 0 0 73.25 4.84
  L 73.25 17.92
  A 0.59 0.59 0.0 0 0 73.84 18.51
  L 77.42 18.51
  A 0.59 0.59 0.0 0 0 78.01 17.92
  L 78.01 4.84"
/>
<path stroke="#92c8e5" vector-effect="non-scaling-stroke" d="
  M 42.8358 12.5839
  A 0.36 0.36 0.0 0 0 42.3436 12.4538
  L 38.5926 14.6369
  A 0.36 0.36 0.0 0 0 38.4625 15.1291
  L 45.4042 27.0561
  A 0.36 0.36 0.0 0 0 45.8964 27.1862
  L 49.6474 25.0031
  A 0.36 0.36 0.0 0 0 49.7775 24.5109
  L 42.8358 12.5839"
/>
<path stroke="#92c8e5" vector-effect="non-scaling-stroke" d="
  M 112.6601 15.2746
  A 0.50 0.50 0.0 0 0 112.4747 14.5923
  L 108.9516 12.5746
  A 0.50 0.50 0.0 0 0 108.2692 12.7599
  L 101.5999 24.4054
  A 0.50 0.50 0.0 0 0 101.7853 25.0877
  L 105.3084 27.1054
  A 0.50 0.50 0.0 0 0 105.9908 26.9201
  L 112.6601 15.2746"
/>
<path stroke="#92c8e5" vector-effect="non-scaling-stroke" d="
  M 96.26 29.66
  C 61.63 11.32 22.68 43.23 32.13 80.53
  C 36.14 96.37 51.11 106.10 54.75 121.92
  C 56.25 128.45 55.53 137.21 55.31 144.72
  C 54.87 159.97 67.09 165.49 80.52 163.51
  C 87.39 162.50 95.87 156.90 95.79 149.51
  Q 95.66 138.48 95.83 127.42
  C 96.00 115.99 104.28 104.99 111.34 96.01
  C 129.05 73.48 120.12 42.30 96.26 29.66"
/>
<path stroke="#92c8e5" vector-effect="non-scaling-stroke" d="
  M 28.4106 44.6819
  A 0.47 0.47 0.0 0 0 28.2330 44.0414
  L 16.3787 37.3346
  A 0.47 0.47 0.0 0 0 15.7382 37.5122
  L 13.7094 41.0981
  A 0.47 0.47 0.0 0 0 13.8870 41.7386
  L 25.7413 48.4454
  A 0.47 0.47 0.0 0 0 26.3818 48.2678
  L 28.4106 44.6819"
/>
<path stroke="#92c8e5" vector-effect="non-scaling-stroke" d="
  M 135.4569 37.4918
  A 0.55 0.55 0.0 0 0 134.7045 37.2944
  L 123.1523 44.0450
  A 0.55 0.55 0.0 0 0 122.9549 44.7974
  L 124.9831 48.2682
  A 0.55 0.55 0.0 0 0 125.7355 48.4656
  L 137.2877 41.7150
  A 0.55 0.55 0.0 0 0 137.4851 40.9626
  L 135.4569 37.4918"
/>
<path stroke="#92c8e5" vector-effect="non-scaling-stroke" d="
  M 19.6350 73.0920
  A 1.48 1.48 0.0 0 0 18.1243 71.6433
  L 6.9268 71.8778
  A 1.48 1.48 0.0 0 0 5.4781 73.3885
  L 5.5250 75.6280
  A 1.48 1.48 0.0 0 0 7.0357 77.0767
  L 18.2332 76.8422
  A 1.48 1.48 0.0 0 0 19.6819 75.3315
  L 19.6350 73.0920"
/>
<path stroke="#92c8e5" vector-effect="non-scaling-stroke" d="
  M 144.34 72.02
  C 140.22 72.00 136.19 71.59 132.03 71.79
  A 0.46 0.45 -3.2 0 0 131.60 72.26
  L 131.80 76.29
  A 0.49 0.49 0.0 0 0 132.29 76.75
  L 146.10 76.75
  A 0.45 0.45 0.0 0 0 146.52 76.14
  L 145.11 72.55
  A 0.85 0.85 0.0 0 0 144.34 72.02"
/>
<path stroke="#92c8e5" vector-effect="non-scaling-stroke" d="
  M 26.1816 100.3215
  A 0.27 0.27 0.0 0 0 25.8126 100.2233
  L 13.7697 107.2044
  A 0.27 0.27 0.0 0 0 13.6715 107.5734
  L 15.9584 111.5185
  A 0.27 0.27 0.0 0 0 16.3274 111.6167
  L 28.3703 104.6356
  A 0.27 0.27 0.0 0 0 28.4685 104.2666
  L 26.1816 100.3215"
/>
<path stroke="#92c8e5" vector-effect="non-scaling-stroke" d="
  M 137.5893 107.6490
  A 0.33 0.33 0.0 0 0 137.4693 107.1980
  L 125.4783 100.2470
  A 0.33 0.33 0.0 0 0 125.0273 100.3670
  L 122.8107 104.1910
  A 0.33 0.33 0.0 0 0 122.9307 104.6420
  L 134.9217 111.5930
  A 0.33 0.33 0.0 0 0 135.3727 111.4730
  L 137.5893 107.6490"
/>
<path stroke="#92c8e5" vector-effect="non-scaling-stroke" d="
  M 66.64 97.25
  L 59.08 94.60
  Q 56.28 93.61 55.71 90.69
  C 53.37 78.72 70.93 74.03 72.49 90.61
  A 0.76 0.76 0.0 0 0 73.22 91.30
  L 77.17 91.46
  A 0.89 0.89 0.0 0 0 78.06 90.83
  C 79.70 85.52 81.19 78.43 88.68 80.02
  C 97.51 81.88 98.20 94.37 89.07 96.26
  Q 87.23 96.64 85.76 96.90
  Q 83.98 97.20 83.99 99.00
  L 84.09 116.88
  A 1.45 1.43 21.3 0 0 84.55 117.91
  Q 87.21 120.34 90.78 119.11
  A 1.29 1.29 0.0 0 0 91.53 118.43
  Q 96.78 106.85 104.33 96.70
  C 112.47 85.76 117.28 76.65 114.71 62.61
  C 109.65 35.05 79.67 21.32 55.33 35.19
  C 36.04 46.17 29.40 73.85 43.03 91.72
  Q 52.78 104.51 58.34 115.26
  C 60.16 118.76 62.26 120.18 66.13 119.24
  A 1.10 1.09 -6.5 0 0 66.97 118.19
  L 67.31 98.22
  A 1.00 1.00 0.0 0 0 66.64 97.25"
/>
<path stroke="#92c8e5" vector-effect="non-scaling-stroke" d="
  M 65.94 85.92
  Q 64.21 84.03 62.44 85.89
  C 58.49 90.06 63.46 93.03 66.78 90.35
  A 1.21 1.18 -20.3 0 0 67.23 89.40
  Q 67.23 87.32 65.94 85.92"
/>
<path stroke="#92c8e5" vector-effect="non-scaling-stroke" d="
  M 84.66 90.82
  C 88.97 92.75 92.45 89.21 88.92 85.55
  A 1.03 1.02 -22.7 0 0 88.13 85.23
  Q 83.66 85.42 84.09 90.03
  A 0.97 0.95 9.6 0 0 84.66 90.82"
/>
<path stroke="#92c8e5" vector-effect="non-scaling-stroke" d="
  M 78.71 118.64
  L 78.80 97.65
  A 0.65 0.64 0.4 0 0 78.15 97.00
  L 72.86 97.00
  A 0.64 0.64 0.0 0 0 72.22 97.64
  L 72.32 117.56
  A 1.72 1.72 0.0 0 0 74.05 119.27
  L 78.12 119.23
  A 0.60 0.59 -0.5 0 0 78.71 118.64"
/>
<path stroke="#92c8e5" vector-effect="non-scaling-stroke" d="
  M 90.59 126.19
  A 1.62 1.62 0.0 0 0 88.97 124.51
  L 61.38 124.50
  A 0.63 0.62 -0.0 0 0 60.75 125.12
  L 60.75 129.13
  A 0.62 0.62 0.0 0 0 61.37 129.75
  L 89.88 129.75
  A 0.62 0.62 0.0 0 0 90.50 129.14
  L 90.59 126.19"
/>
<path stroke="#92c8e5" vector-effect="non-scaling-stroke" d="
  M 90.3826 136.0158
  A 0.48 0.48 0.0 0 0 89.9035 135.5350
  L 61.2635 135.4850
  A 0.48 0.48 0.0 0 0 60.7827 135.9642
  L 60.7774 139.0242
  A 0.48 0.48 0.0 0 0 61.2565 139.5050
  L 89.8965 139.5550
  A 0.48 0.48 0.0 0 0 90.3773 139.0758
  L 90.3826 136.0158"
/>
<path stroke="#92c8e5" vector-effect="non-scaling-stroke" d="
  M 90.47 146.37
  A 1.32 1.32 0.0 0 0 89.15 145.05
  L 62.09 145.05
  A 1.32 1.32 0.0 0 0 60.77 146.37
  L 60.77 148.19
  A 1.32 1.32 0.0 0 0 62.09 149.51
  L 89.15 149.51
  A 1.32 1.32 0.0 0 0 90.47 148.19
  L 90.47 146.37"
/>
<path stroke="#92c8e5" vector-effect="non-scaling-stroke" d="
  M 65.83 155.94
  C 68.84 160.33 80.48 158.62 84.57 156.66
  Q 87.02 155.50 84.31 155.50
  L 66.06 155.51
  Q 65.53 155.51 65.83 155.94"
/>
</g>
<path fill="#ffffff" d="
  M 0.00 0.00
  L 152.00 0.00
  L 152.00 171.00
  L 0.00 171.00
  L 0.00 0.00
  Z
  M 78.01 4.84
  A 0.59 0.59 0.0 0 0 77.42 4.25
  L 73.84 4.25
  A 0.59 0.59 0.0 0 0 73.25 4.84
  L 73.25 17.92
  A 0.59 0.59 0.0 0 0 73.84 18.51
  L 77.42 18.51
  A 0.59 0.59 0.0 0 0 78.01 17.92
  L 78.01 4.84
  Z
  M 42.8358 12.5839
  A 0.36 0.36 0.0 0 0 42.3436 12.4538
  L 38.5926 14.6369
  A 0.36 0.36 0.0 0 0 38.4625 15.1291
  L 45.4042 27.0561
  A 0.36 0.36 0.0 0 0 45.8964 27.1862
  L 49.6474 25.0031
  A 0.36 0.36 0.0 0 0 49.7775 24.5109
  L 42.8358 12.5839
  Z
  M 112.6601 15.2746
  A 0.50 0.50 0.0 0 0 112.4747 14.5923
  L 108.9516 12.5746
  A 0.50 0.50 0.0 0 0 108.2692 12.7599
  L 101.5999 24.4054
  A 0.50 0.50 0.0 0 0 101.7853 25.0877
  L 105.3084 27.1054
  A 0.50 0.50 0.0 0 0 105.9908 26.9201
  L 112.6601 15.2746
  Z
  M 96.26 29.66
  C 61.63 11.32 22.68 43.23 32.13 80.53
  C 36.14 96.37 51.11 106.10 54.75 121.92
  C 56.25 128.45 55.53 137.21 55.31 144.72
  C 54.87 159.97 67.09 165.49 80.52 163.51
  C 87.39 162.50 95.87 156.90 95.79 149.51
  Q 95.66 138.48 95.83 127.42
  C 96.00 115.99 104.28 104.99 111.34 96.01
  C 129.05 73.48 120.12 42.30 96.26 29.66
  Z
  M 28.4106 44.6819
  A 0.47 0.47 0.0 0 0 28.2330 44.0414
  L 16.3787 37.3346
  A 0.47 0.47 0.0 0 0 15.7382 37.5122
  L 13.7094 41.0981
  A 0.47 0.47 0.0 0 0 13.8870 41.7386
  L 25.7413 48.4454
  A 0.47 0.47 0.0 0 0 26.3818 48.2678
  L 28.4106 44.6819
  Z
  M 135.4569 37.4918
  A 0.55 0.55 0.0 0 0 134.7045 37.2944
  L 123.1523 44.0450
  A 0.55 0.55 0.0 0 0 122.9549 44.7974
  L 124.9831 48.2682
  A 0.55 0.55 0.0 0 0 125.7355 48.4656
  L 137.2877 41.7150
  A 0.55 0.55 0.0 0 0 137.4851 40.9626
  L 135.4569 37.4918
  Z
  M 19.6350 73.0920
  A 1.48 1.48 0.0 0 0 18.1243 71.6433
  L 6.9268 71.8778
  A 1.48 1.48 0.0 0 0 5.4781 73.3885
  L 5.5250 75.6280
  A 1.48 1.48 0.0 0 0 7.0357 77.0767
  L 18.2332 76.8422
  A 1.48 1.48 0.0 0 0 19.6819 75.3315
  L 19.6350 73.0920
  Z
  M 144.34 72.02
  C 140.22 72.00 136.19 71.59 132.03 71.79
  A 0.46 0.45 -3.2 0 0 131.60 72.26
  L 131.80 76.29
  A 0.49 0.49 0.0 0 0 132.29 76.75
  L 146.10 76.75
  A 0.45 0.45 0.0 0 0 146.52 76.14
  L 145.11 72.55
  A 0.85 0.85 0.0 0 0 144.34 72.02
  Z
  M 26.1816 100.3215
  A 0.27 0.27 0.0 0 0 25.8126 100.2233
  L 13.7697 107.2044
  A 0.27 0.27 0.0 0 0 13.6715 107.5734
  L 15.9584 111.5185
  A 0.27 0.27 0.0 0 0 16.3274 111.6167
  L 28.3703 104.6356
  A 0.27 0.27 0.0 0 0 28.4685 104.2666
  L 26.1816 100.3215
  Z
  M 137.5893 107.6490
  A 0.33 0.33 0.0 0 0 137.4693 107.1980
  L 125.4783 100.2470
  A 0.33 0.33 0.0 0 0 125.0273 100.3670
  L 122.8107 104.1910
  A 0.33 0.33 0.0 0 0 122.9307 104.6420
  L 134.9217 111.5930
  A 0.33 0.33 0.0 0 0 135.3727 111.4730
  L 137.5893 107.6490
  Z"
/>
<rect fill="#2491ca" x="73.25" y="4.25" width="4.76" height="14.26" rx="0.59"/>
<rect fill="#2491ca" x="-2.53" y="-7.26" transform="translate(44.12,19.82) rotate(-30.2)" width="5.06" height="14.52" rx="0.36"/>
<rect fill="#2491ca" x="-2.53" y="-7.21" transform="translate(107.13,19.84) rotate(29.8)" width="5.06" height="14.42" rx="0.50"/>
<path fill="#2491ca" d="
  M 96.26 29.66
  C 120.12 42.30 129.05 73.48 111.34 96.01
  C 104.28 104.99 96.00 115.99 95.83 127.42
  Q 95.66 138.48 95.79 149.51
  C 95.87 156.90 87.39 162.50 80.52 163.51
  C 67.09 165.49 54.87 159.97 55.31 144.72
  C 55.53 137.21 56.25 128.45 54.75 121.92
  C 51.11 106.10 36.14 96.37 32.13 80.53
  C 22.68 43.23 61.63 11.32 96.26 29.66
  Z
  M 66.64 97.25
  L 59.08 94.60
  Q 56.28 93.61 55.71 90.69
  C 53.37 78.72 70.93 74.03 72.49 90.61
  A 0.76 0.76 0.0 0 0 73.22 91.30
  L 77.17 91.46
  A 0.89 0.89 0.0 0 0 78.06 90.83
  C 79.70 85.52 81.19 78.43 88.68 80.02
  C 97.51 81.88 98.20 94.37 89.07 96.26
  Q 87.23 96.64 85.76 96.90
  Q 83.98 97.20 83.99 99.00
  L 84.09 116.88
  A 1.45 1.43 21.3 0 0 84.55 117.91
  Q 87.21 120.34 90.78 119.11
  A 1.29 1.29 0.0 0 0 91.53 118.43
  Q 96.78 106.85 104.33 96.70
  C 112.47 85.76 117.28 76.65 114.71 62.61
  C 109.65 35.05 79.67 21.32 55.33 35.19
  C 36.04 46.17 29.40 73.85 43.03 91.72
  Q 52.78 104.51 58.34 115.26
  C 60.16 118.76 62.26 120.18 66.13 119.24
  A 1.10 1.09 -6.5 0 0 66.97 118.19
  L 67.31 98.22
  A 1.00 1.00 0.0 0 0 66.64 97.25
  Z
  M 65.94 85.92
  Q 64.21 84.03 62.44 85.89
  C 58.49 90.06 63.46 93.03 66.78 90.35
  A 1.21 1.18 -20.3 0 0 67.23 89.40
  Q 67.23 87.32 65.94 85.92
  Z
  M 84.66 90.82
  C 88.97 92.75 92.45 89.21 88.92 85.55
  A 1.03 1.02 -22.7 0 0 88.13 85.23
  Q 83.66 85.42 84.09 90.03
  A 0.97 0.95 9.6 0 0 84.66 90.82
  Z
  M 78.71 118.64
  L 78.80 97.65
  A 0.65 0.64 0.4 0 0 78.15 97.00
  L 72.86 97.00
  A 0.64 0.64 0.0 0 0 72.22 97.64
  L 72.32 117.56
  A 1.72 1.72 0.0 0 0 74.05 119.27
  L 78.12 119.23
  A 0.60 0.59 -0.5 0 0 78.71 118.64
  Z
  M 90.59 126.19
  A 1.62 1.62 0.0 0 0 88.97 124.51
  L 61.38 124.50
  A 0.63 0.62 -0.0 0 0 60.75 125.12
  L 60.75 129.13
  A 0.62 0.62 0.0 0 0 61.37 129.75
  L 89.88 129.75
  A 0.62 0.62 0.0 0 0 90.50 129.14
  L 90.59 126.19
  Z
  M 90.3826 136.0158
  A 0.48 0.48 0.0 0 0 89.9035 135.5350
  L 61.2635 135.4850
  A 0.48 0.48 0.0 0 0 60.7827 135.9642
  L 60.7774 139.0242
  A 0.48 0.48 0.0 0 0 61.2565 139.5050
  L 89.8965 139.5550
  A 0.48 0.48 0.0 0 0 90.3773 139.0758
  L 90.3826 136.0158
  Z
  M 90.47 146.37
  A 1.32 1.32 0.0 0 0 89.15 145.05
  L 62.09 145.05
  A 1.32 1.32 0.0 0 0 60.77 146.37
  L 60.77 148.19
  A 1.32 1.32 0.0 0 0 62.09 149.51
  L 89.15 149.51
  A 1.32 1.32 0.0 0 0 90.47 148.19
  L 90.47 146.37
  Z
  M 65.83 155.94
  C 68.84 160.33 80.48 158.62 84.57 156.66
  Q 87.02 155.50 84.31 155.50
  L 66.06 155.51
  Q 65.53 155.51 65.83 155.94
  Z"
/>
<path fill="#ffffff" d="
  M 66.64 97.25
  A 1.00 1.00 0.0 0 1 67.31 98.22
  L 66.97 118.19
  A 1.10 1.09 -6.5 0 1 66.13 119.24
  C 62.26 120.18 60.16 118.76 58.34 115.26
  Q 52.78 104.51 43.03 91.72
  C 29.40 73.85 36.04 46.17 55.33 35.19
  C 79.67 21.32 109.65 35.05 114.71 62.61
  C 117.28 76.65 112.47 85.76 104.33 96.70
  Q 96.78 106.85 91.53 118.43
  A 1.29 1.29 0.0 0 1 90.78 119.11
  Q 87.21 120.34 84.55 117.91
  A 1.45 1.43 21.3 0 1 84.09 116.88
  L 83.99 99.00
  Q 83.98 97.20 85.76 96.90
  Q 87.23 96.64 89.07 96.26
  C 98.20 94.37 97.51 81.88 88.68 80.02
  C 81.19 78.43 79.70 85.52 78.06 90.83
  A 0.89 0.89 0.0 0 1 77.17 91.46
  L 73.22 91.30
  A 0.76 0.76 0.0 0 1 72.49 90.61
  C 70.93 74.03 53.37 78.72 55.71 90.69
  Q 56.28 93.61 59.08 94.60
  L 66.64 97.25
  Z"
/>
<rect fill="#2491ca" x="-7.28" y="-2.53" transform="translate(21.06,42.89) rotate(29.5)" width="14.56" height="5.06" rx="0.47"/>
<rect fill="#2491ca" x="-7.24" y="-2.56" transform="translate(130.22,42.88) rotate(-30.3)" width="14.48" height="5.12" rx="0.55"/>
<rect fill="#2491ca" x="-7.08" y="-2.60" transform="translate(12.58,74.36) rotate(-1.2)" width="14.16" height="5.20" rx="1.48"/>
<path fill="#2491ca" d="
  M 132.03 71.79
  C 136.19 71.59 140.22 72.00 144.34 72.02
  A 0.85 0.85 0.0 0 1 145.11 72.55
  L 146.52 76.14
  A 0.45 0.45 0.0 0 1 146.10 76.75
  L 132.29 76.75
  A 0.49 0.49 0.0 0 1 131.80 76.29
  L 131.60 72.26
  A 0.46 0.45 -3.2 0 1 132.03 71.79
  Z"
/>
<path fill="#ffffff" d="
  M 65.94 85.92
  Q 67.23 87.32 67.23 89.40
  A 1.21 1.18 -20.3 0 1 66.78 90.35
  C 63.46 93.03 58.49 90.06 62.44 85.89
  Q 64.21 84.03 65.94 85.92
  Z"
/>
<path fill="#ffffff" d="
  M 84.66 90.82
  A 0.97 0.95 9.6 0 1 84.09 90.03
  Q 83.66 85.42 88.13 85.23
  A 1.03 1.02 -22.7 0 1 88.92 85.55
  C 92.45 89.21 88.97 92.75 84.66 90.82
  Z"
/>
<path fill="#ffffff" d="
  M 78.71 118.64
  A 0.60 0.59 -0.5 0 1 78.12 119.23
  L 74.05 119.27
  A 1.72 1.72 0.0 0 1 72.32 117.56
  L 72.22 97.64
  A 0.64 0.64 0.0 0 1 72.86 97.00
  L 78.15 97.00
  A 0.65 0.64 0.4 0 1 78.80 97.65
  L 78.71 118.64
  Z"
/>
<rect fill="#2491ca" x="-7.23" y="-2.55" transform="translate(21.07,105.92) rotate(-30.1)" width="14.46" height="5.10" rx="0.27"/>
<rect fill="#2491ca" x="-7.26" y="-2.54" transform="translate(130.20,105.92) rotate(30.1)" width="14.52" height="5.08" rx="0.33"/>
<path fill="#ffffff" d="
  M 90.59 126.19
  L 90.50 129.14
  A 0.62 0.62 0.0 0 1 89.88 129.75
  L 61.37 129.75
  A 0.62 0.62 0.0 0 1 60.75 129.13
  L 60.75 125.12
  A 0.63 0.62 -0.0 0 1 61.38 124.50
  L 88.97 124.51
  A 1.62 1.62 0.0 0 1 90.59 126.19
  Z"
/>
<rect fill="#ffffff" x="-14.80" y="-2.01" transform="translate(75.58,137.52) rotate(0.1)" width="29.60" height="4.02" rx="0.48"/>
<rect fill="#ffffff" x="60.77" y="145.05" width="29.70" height="4.46" rx="1.32"/>
<path fill="#ffffff" d="
  M 84.57 156.66
  C 80.48 158.62 68.84 160.33 65.83 155.94
  Q 65.53 155.51 66.06 155.51
  L 84.31 155.50
  Q 87.02 155.50 84.57 156.66
  Z"
/>
</svg>
