<?xml version="1.0" encoding="UTF-8" standalone="no"?>
<!DOCTYPE svg PUBLIC "-//W3C//DTD SVG 1.1//EN" "http://www.w3.org/Graphics/SVG/1.1/DTD/svg11.dtd">
<svg xmlns="http://www.w3.org/2000/svg" version="1.1" viewBox="0 0 167 109">
<g stroke-width="2.00" fill="none" stroke-linecap="butt">
<path stroke="#92c8e5" vector-effect="non-scaling-stroke" d="
  M 86.63 97.74
  A 0.90 0.90 0.0 0 1 87.89 97.30
  C 91.02 98.99 94.74 101.23 98.29 100.56
  Q 104.51 99.38 105.62 92.44
  A 0.60 0.60 0.0 0 1 106.20 91.94
  Q 115.23 91.86 117.58 83.24
  A 0.56 0.56 0.0 0 1 118.27 82.85
  Q 129.38 85.97 133.48 75.54
  A 0.49 0.48 -70.0 0 1 134.08 75.26
  C 139.01 76.90 145.85 76.32 155.18 76.19
  C 159.37 76.13 160.75 72.96 160.75 69.07
  Q 160.75 47.28 160.76 25.50
  C 160.76 21.43 159.40 18.25 154.99 18.25
  Q 146.38 18.24 137.74 18.26
  Q 134.46 18.26 132.75 20.63
  A 0.82 0.82 0.0 0 1 131.97 20.96
  Q 129.42 20.61 126.92 19.83
  Q 116.03 16.43 104.88 13.78
  A 1.31 1.31 0.0 0 1 104.10 13.26
  C 97.32 3.79 80.39 3.04 70.23 5.00
  C 61.08 6.76 48.59 12.56 38.20 16.38
  A 0.76 0.75 -31.5 0 1 37.39 16.19
  Q 35.17 13.80 33.70 13.78
  Q 24.16 13.70 14.62 13.78
  C 11.14 13.81 9.15 16.20 9.05 19.67
  Q 8.41 41.24 8.93 62.83
  C 9.05 67.96 9.61 71.65 15.51 71.69
  Q 24.45 71.75 33.47 71.75
  A 1.14 1.11 68.6 0 1 34.31 72.13
  Q 43.52 82.37 48.72 87.03
  C 55.72 93.31 63.39 96.86 73.38 101.91
  Q 82.85 106.69 86.63 97.74"
/>
<path stroke="#92c8e5" vector-effect="non-scaling-stroke" d="
  M 100.37 68.48
  Q 101.93 66.11 104.40 67.50
  Q 111.27 71.39 117.92 75.51
  Q 120.56 77.15 121.90 77.40
  C 127.10 78.38 129.68 71.46 125.59 68.65
  Q 118.75 63.94 81.19 39.21
  A 1.05 1.02 52.5 0 0 80.30 39.08
  C 77.23 40.02 74.07 41.44 71.26 41.98
  C 60.18 44.10 42.93 42.63 42.63 27.46
  A 2.22 2.21 -11.9 0 1 44.00 25.37
  C 59.00 19.18 75.75 13.29 92.02 12.22
  Q 92.52 12.19 92.04 12.05
  Q 76.53 7.78 62.31 13.54
  Q 47.76 19.42 38.69 22.46
  A 0.65 0.64 -9.5 0 0 38.25 23.07
  L 38.25 66.92
  A 1.22 1.21 24.1 0 0 38.57 67.74
  Q 48.18 78.33 51.56 81.44
  C 59.36 88.61 68.54 92.46 77.67 97.12
  A 2.48 2.48 0.0 0 0 80.31 96.87
  C 83.55 94.35 73.44 91.85 76.97 87.98
  Q 78.54 86.25 80.66 87.23
  Q 88.35 90.80 95.45 94.30
  C 96.96 95.04 99.01 94.61 99.35 92.94
  Q 99.70 91.23 98.21 90.31
  L 91.53 86.19
  Q 89.47 84.92 90.59 82.78
  C 91.84 80.41 93.80 80.69 96.04 81.70
  Q 100.96 83.92 106.10 85.74
  Q 108.74 86.67 110.40 84.43
  C 116.61 76.07 96.50 74.38 100.37 68.48"
/>
<path stroke="#92c8e5" vector-effect="non-scaling-stroke" d="
  M 81.95 32.43
  C 98.34 43.35 114.93 53.94 131.10 65.16
  Q 131.50 65.43 131.50 64.95
  L 131.50 28.02
  A 0.77 0.77 0.0 0 0 130.94 27.28
  C 110.58 21.25 94.35 15.04 74.01 21.52
  Q 56.00 27.26 49.46 29.63
  A 0.53 0.53 0.0 0 0 49.13 30.28
  Q 50.26 34.07 54.50 35.26
  Q 67.86 39.02 79.60 32.35
  A 2.25 2.25 0.0 0 1 81.95 32.43"
/>
<path stroke="#92c8e5" vector-effect="non-scaling-stroke" d="
  M 32.0792 20.3049
  A 0.54 0.54 0.0 0 0 31.5401 19.7640
  L 15.5802 19.7361
  A 0.54 0.54 0.0 0 0 15.0392 20.2752
  L 14.9608 65.1951
  A 0.54 0.54 0.0 0 0 15.4999 65.7360
  L 31.4598 65.7639
  A 0.54 0.54 0.0 0 0 32.0008 65.2248
  L 32.0792 20.3049"
/>
<path stroke="#92c8e5" vector-effect="non-scaling-stroke" d="
  M 154.75 24.57
  A 0.31 0.31 0.0 0 0 154.44 24.26
  L 138.06 24.26
  A 0.31 0.31 0.0 0 0 137.75 24.57
  L 137.75 69.69
  A 0.31 0.31 0.0 0 0 138.06 70.00
  L 154.44 70.00
  A 0.31 0.31 0.0 0 0 154.75 69.69
  L 154.75 24.57"
/>
</g>
<path fill="#ffffff" d="
  M 0.00 0.00
  L 167.00 0.00
  L 167.00 109.00
  L 0.00 109.00
  L 0.00 0.00
  Z
  M 86.63 97.74
  A 0.90 0.90 0.0 0 1 87.89 97.30
  C 91.02 98.99 94.74 101.23 98.29 100.56
  Q 104.51 99.38 105.62 92.44
  A 0.60 0.60 0.0 0 1 106.20 91.94
  Q 115.23 91.86 117.58 83.24
  A 0.56 0.56 0.0 0 1 118.27 82.85
  Q 129.38 85.97 133.48 75.54
  A 0.49 0.48 -70.0 0 1 134.08 75.26
  C 139.01 76.90 145.85 76.32 155.18 76.19
  C 159.37 76.13 160.75 72.96 160.75 69.07
  Q 160.75 47.28 160.76 25.50
  C 160.76 21.43 159.40 18.25 154.99 18.25
  Q 146.38 18.24 137.74 18.26
  Q 134.46 18.26 132.75 20.63
  A 0.82 0.82 0.0 0 1 131.97 20.96
  Q 129.42 20.61 126.92 19.83
  Q 116.03 16.43 104.88 13.78
  A 1.31 1.31 0.0 0 1 104.10 13.26
  C 97.32 3.79 80.39 3.04 70.23 5.00
  C 61.08 6.76 48.59 12.56 38.20 16.38
  A 0.76 0.75 -31.5 0 1 37.39 16.19
  Q 35.17 13.80 33.70 13.78
  Q 24.16 13.70 14.62 13.78
  C 11.14 13.81 9.15 16.20 9.05 19.67
  Q 8.41 41.24 8.93 62.83
  C 9.05 67.96 9.61 71.65 15.51 71.69
  Q 24.45 71.75 33.47 71.75
  A 1.14 1.11 68.6 0 1 34.31 72.13
  Q 43.52 82.37 48.72 87.03
  C 55.72 93.31 63.39 96.86 73.38 101.91
  Q 82.85 106.69 86.63 97.74
  Z"
/>
<path fill="#2491ca" d="
  M 86.63 97.74
  Q 82.85 106.69 73.38 101.91
  C 63.39 96.86 55.72 93.31 48.72 87.03
  Q 43.52 82.37 34.31 72.13
  A 1.14 1.11 68.6 0 0 33.47 71.75
  Q 24.45 71.75 15.51 71.69
  C 9.61 71.65 9.05 67.96 8.93 62.83
  Q 8.41 41.24 9.05 19.67
  C 9.15 16.20 11.14 13.81 14.62 13.78
  Q 24.16 13.70 33.70 13.78
  Q 35.17 13.80 37.39 16.19
  A 0.76 0.75 -31.5 0 0 38.20 16.38
  C 48.59 12.56 61.08 6.76 70.23 5.00
  C 80.39 3.04 97.32 3.79 104.10 13.26
  A 1.31 1.31 0.0 0 0 104.88 13.78
  Q 116.03 16.43 126.92 19.83
  Q 129.42 20.61 131.97 20.96
  A 0.82 0.82 0.0 0 0 132.75 20.63
  Q 134.46 18.26 137.74 18.26
  Q 146.38 18.24 154.99 18.25
  C 159.40 18.25 160.76 21.43 160.76 25.50
  Q 160.75 47.28 160.75 69.07
  C 160.75 72.96 159.37 76.13 155.18 76.19
  C 145.85 76.32 139.01 76.90 134.08 75.26
  A 0.49 0.48 -70.0 0 0 133.48 75.54
  Q 129.38 85.97 118.27 82.85
  A 0.56 0.56 0.0 0 0 117.58 83.24
  Q 115.23 91.86 106.20 91.94
  A 0.60 0.60 0.0 0 0 105.62 92.44
  Q 104.51 99.38 98.29 100.56
  C 94.74 101.23 91.02 98.99 87.89 97.30
  A 0.90 0.90 0.0 0 0 86.63 97.74
  Z
  M 100.37 68.48
  Q 101.93 66.11 104.40 67.50
  Q 111.27 71.39 117.92 75.51
  Q 120.56 77.15 121.90 77.40
  C 127.10 78.38 129.68 71.46 125.59 68.65
  Q 118.75 63.94 81.19 39.21
  A 1.05 1.02 52.5 0 0 80.30 39.08
  C 77.23 40.02 74.07 41.44 71.26 41.98
  C 60.18 44.10 42.93 42.63 42.63 27.46
  A 2.22 2.21 -11.9 0 1 44.00 25.37
  C 59.00 19.18 75.75 13.29 92.02 12.22
  Q 92.52 12.19 92.04 12.05
  Q 76.53 7.78 62.31 13.54
  Q 47.76 19.42 38.69 22.46
  A 0.65 0.64 -9.5 0 0 38.25 23.07
  L 38.25 66.92
  A 1.22 1.21 24.1 0 0 38.57 67.74
  Q 48.18 78.33 51.56 81.44
  C 59.36 88.61 68.54 92.46 77.67 97.12
  A 2.48 2.48 0.0 0 0 80.31 96.87
  C 83.55 94.35 73.44 91.85 76.97 87.98
  Q 78.54 86.25 80.66 87.23
  Q 88.35 90.80 95.45 94.30
  C 96.96 95.04 99.01 94.61 99.35 92.94
  Q 99.70 91.23 98.21 90.31
  L 91.53 86.19
  Q 89.47 84.92 90.59 82.78
  C 91.84 80.41 93.80 80.69 96.04 81.70
  Q 100.96 83.92 106.10 85.74
  Q 108.74 86.67 110.40 84.43
  C 116.61 76.07 96.50 74.38 100.37 68.48
  Z
  M 81.95 32.43
  C 98.34 43.35 114.93 53.94 131.10 65.16
  Q 131.50 65.43 131.50 64.95
  L 131.50 28.02
  A 0.77 0.77 0.0 0 0 130.94 27.28
  C 110.58 21.25 94.35 15.04 74.01 21.52
  Q 56.00 27.26 49.46 29.63
  A 0.53 0.53 0.0 0 0 49.13 30.28
  Q 50.26 34.07 54.50 35.26
  Q 67.86 39.02 79.60 32.35
  A 2.25 2.25 0.0 0 1 81.95 32.43
  Z
  M 32.0792 20.3049
  A 0.54 0.54 0.0 0 0 31.5401 19.7640
  L 15.5802 19.7361
  A 0.54 0.54 0.0 0 0 15.0392 20.2752
  L 14.9608 65.1951
  A 0.54 0.54 0.0 0 0 15.4999 65.7360
  L 31.4598 65.7639
  A 0.54 0.54 0.0 0 0 32.0008 65.2248
  L 32.0792 20.3049
  Z
  M 154.75 24.57
  A 0.31 0.31 0.0 0 0 154.44 24.26
  L 138.06 24.26
  A 0.31 0.31 0.0 0 0 137.75 24.57
  L 137.75 69.69
  A 0.31 0.31 0.0 0 0 138.06 70.00
  L 154.44 70.00
  A 0.31 0.31 0.0 0 0 154.75 69.69
  L 154.75 24.57
  Z"
/>
<path fill="#ffffff" d="
  M 100.37 68.48
  C 96.50 74.38 116.61 76.07 110.40 84.43
  Q 108.74 86.67 106.10 85.74
  Q 100.96 83.92 96.04 81.70
  C 93.80 80.69 91.84 80.41 90.59 82.78
  Q 89.47 84.92 91.53 86.19
  L 98.21 90.31
  Q 99.70 91.23 99.35 92.94
  C 99.01 94.61 96.96 95.04 95.45 94.30
  Q 88.35 90.80 80.66 87.23
  Q 78.54 86.25 76.97 87.98
  C 73.44 91.85 83.55 94.35 80.31 96.87
  A 2.48 2.48 0.0 0 1 77.67 97.12
  C 68.54 92.46 59.36 88.61 51.56 81.44
  Q 48.18 78.33 38.57 67.74
  A 1.22 1.21 24.1 0 1 38.25 66.92
  L 38.25 23.07
  A 0.65 0.64 -9.5 0 1 38.69 22.46
  Q 47.76 19.42 62.31 13.54
  Q 76.53 7.78 92.04 12.05
  Q 92.52 12.19 92.02 12.22
  C 75.75 13.29 59.00 19.18 44.00 25.37
  A 2.22 2.21 -11.9 0 0 42.63 27.46
  C 42.93 42.63 60.18 44.10 71.26 41.98
  C 74.07 41.44 77.23 40.02 80.30 39.08
  A 1.05 1.02 52.5 0 1 81.19 39.21
  Q 118.75 63.94 125.59 68.65
  C 129.68 71.46 127.10 78.38 121.90 77.40
  Q 120.56 77.15 117.92 75.51
  Q 111.27 71.39 104.40 67.50
  Q 101.93 66.11 100.37 68.48
  Z"
/>
<path fill="#ffffff" d="
  M 131.10 65.16
  C 114.93 53.94 98.34 43.35 81.95 32.43
  A 2.25 2.25 0.0 0 0 79.60 32.35
  Q 67.86 39.02 54.50 35.26
  Q 50.26 34.07 49.13 30.28
  A 0.53 0.53 0.0 0 1 49.46 29.63
  Q 56.00 27.26 74.01 21.52
  C 94.35 15.04 110.58 21.25 130.94 27.28
  A 0.77 0.77 0.0 0 1 131.50 28.02
  L 131.50 64.95
  Q 131.50 65.43 131.10 65.16
  Z"
/>
<rect fill="#ffffff" x="-8.52" y="-23.00" transform="translate(23.52,42.75) rotate(0.1)" width="17.04" height="46.00" rx="0.54"/>
<rect fill="#ffffff" x="137.75" y="24.26" width="17.00" height="45.74" rx="0.31"/>
</svg>
