<?xml version="1.0" encoding="UTF-8" standalone="no"?>
<!DOCTYPE svg PUBLIC "-//W3C//DTD SVG 1.1//EN" "http://www.w3.org/Graphics/SVG/1.1/DTD/svg11.dtd">
<svg xmlns="http://www.w3.org/2000/svg" version="1.1" viewBox="0 0 176 101">
<g stroke-width="2.00" fill="none" stroke-linecap="butt">
<path stroke="#92c8e5" vector-effect="non-scaling-stroke" d="
  M 91.00 4.52
  A 0.27 0.27 0.0 0 0 90.73 4.25
  L 82.77 4.25
  A 0.27 0.27 0.0 0 0 82.50 4.52
  L 82.50 20.74
  A 0.27 0.27 0.0 0 0 82.77 21.01
  L 90.73 21.01
  A 0.27 0.27 0.0 0 0 91.00 20.74
  L 91.00 4.52"
/>
<path stroke="#92c8e5" vector-effect="non-scaling-stroke" d="
  M 36.14 10.00
  A 0.37 0.37 0.0 0 0 35.78 9.91
  L 27.20 12.29
  A 0.37 0.37 0.0 0 0 27.04 12.91
  L 41.54 27.41
  A 0.37 0.37 0.0 0 0 41.90 27.50
  L 50.44 25.10
  A 0.37 0.37 0.0 0 0 50.60 24.48
  L 36.14 10.00"
/>
<path stroke="#92c8e5" vector-effect="non-scaling-stroke" d="
  M 146.04 12.74
  C 143.24 11.94 140.51 11.07 137.66 10.36
  A 0.93 0.92 29.6 0 0 136.78 10.60
  L 122.91 24.46
  A 0.43 0.43 0.0 0 0 123.10 25.18
  L 131.23 27.49
  A 0.93 0.91 -59.6 0 0 132.12 27.25
  L 146.16 13.21
  A 0.28 0.28 0.0 0 0 146.04 12.74"
/>
<path stroke="#92c8e5" vector-effect="non-scaling-stroke" d="
  M 70.29 98.38
  C 42.15 83.32 42.56 45.14 70.75 30.75
  Q 71.19 30.52 70.70 30.58
  C 46.30 33.31 22.65 44.64 7.26 64.20
  A 0.61 0.61 0.0 0 0 7.25 64.95
  C 22.09 84.45 46.31 95.87 70.24 98.56
  Q 70.73 98.61 70.29 98.38"
/>
<path stroke="#92c8e5" vector-effect="non-scaling-stroke" d="
  M 170.18 63.87
  C 153.29 44.92 128.12 33.35 103.06 30.55
  Q 102.56 30.50 103.01 30.73
  C 130.56 45.12 131.68 84.46 103.27 98.17
  Q 101.63 98.97 103.44 98.74
  C 128.91 95.56 152.64 84.43 170.17 65.38
  A 1.13 1.13 0.0 0 0 170.18 63.87"
/>
<path stroke="#92c8e5" vector-effect="non-scaling-stroke" d="
  M 111.44 64.61
  A 24.64 24.64 0.0 0 0 86.80 39.97
  A 24.64 24.64 0.0 0 0 62.16 64.61
  A 24.64 24.64 0.0 0 0 86.80 89.25
  A 24.64 24.64 0.0 0 0 111.44 64.61"
/>
<path stroke="#92c8e5" vector-effect="non-scaling-stroke" d="
  M 103.46 49.80
  A 3.43 3.43 0.0 0 0 100.03 46.37
  A 3.43 3.43 0.0 0 0 96.60 49.80
  A 3.43 3.43 0.0 0 0 100.03 53.23
  A 3.43 3.43 0.0 0 0 103.46 49.80"
/>
<path stroke="#92c8e5" vector-effect="non-scaling-stroke" d="
  M 96.33 64.61
  A 9.53 9.53 0.0 0 0 86.80 55.08
  A 9.53 9.53 0.0 0 0 77.27 64.61
  A 9.53 9.53 0.0 0 0 86.80 74.14
  A 9.53 9.53 0.0 0 0 96.33 64.61"
/>
</g>
<path fill="#ffffff" d="
  M 0.00 0.00
  L 176.00 0.00
  L 176.00 101.00
  L 0.00 101.00
  L 0.00 0.00
  Z
  M 91.00 4.52
  A 0.27 0.27 0.0 0 0 90.73 4.25
  L 82.77 4.25
  A 0.27 0.27 0.0 0 0 82.50 4.52
  L 82.50 20.74
  A 0.27 0.27 0.0 0 0 82.77 21.01
  L 90.73 21.01
  A 0.27 0.27 0.0 0 0 91.00 20.74
  L 91.00 4.52
  Z
  M 36.14 10.00
  A 0.37 0.37 0.0 0 0 35.78 9.91
  L 27.20 12.29
  A 0.37 0.37 0.0 0 0 27.04 12.91
  L 41.54 27.41
  A 0.37 0.37 0.0 0 0 41.90 27.50
  L 50.44 25.10
  A 0.37 0.37 0.0 0 0 50.60 24.48
  L 36.14 10.00
  Z
  M 146.04 12.74
  C 143.24 11.94 140.51 11.07 137.66 10.36
  A 0.93 0.92 29.6 0 0 136.78 10.60
  L 122.91 24.46
  A 0.43 0.43 0.0 0 0 123.10 25.18
  L 131.23 27.49
  A 0.93 0.91 -59.6 0 0 132.12 27.25
  L 146.16 13.21
  A 0.28 0.28 0.0 0 0 146.04 12.74
  Z
  M 70.29 98.38
  C 42.15 83.32 42.56 45.14 70.75 30.75
  Q 71.19 30.52 70.70 30.58
  C 46.30 33.31 22.65 44.64 7.26 64.20
  A 0.61 0.61 0.0 0 0 7.25 64.95
  C 22.09 84.45 46.31 95.87 70.24 98.56
  Q 70.73 98.61 70.29 98.38
  Z
  M 170.18 63.87
  C 153.29 44.92 128.12 33.35 103.06 30.55
  Q 102.56 30.50 103.01 30.73
  C 130.56 45.12 131.68 84.46 103.27 98.17
  Q 101.63 98.97 103.44 98.74
  C 128.91 95.56 152.64 84.43 170.17 65.38
  A 1.13 1.13 0.0 0 0 170.18 63.87
  Z
  M 111.44 64.61
  A 24.64 24.64 0.0 0 0 86.80 39.97
  A 24.64 24.64 0.0 0 0 62.16 64.61
  A 24.64 24.64 0.0 0 0 86.80 89.25
  A 24.64 24.64 0.0 0 0 111.44 64.61
  Z"
/>
<rect fill="#2491ca" x="82.50" y="4.25" width="8.50" height="16.76" rx="0.27"/>
<path fill="#2491ca" d="
  M 36.14 10.00
  L 50.60 24.48
  A 0.37 0.37 0.0 0 1 50.44 25.10
  L 41.90 27.50
  A 0.37 0.37 0.0 0 1 41.54 27.41
  L 27.04 12.91
  A 0.37 0.37 0.0 0 1 27.20 12.29
  L 35.78 9.91
  A 0.37 0.37 0.0 0 1 36.14 10.00
  Z"
/>
<path fill="#2491ca" d="
  M 137.66 10.36
  C 140.51 11.07 143.24 11.94 146.04 12.74
  A 0.28 0.28 0.0 0 1 146.16 13.21
  L 132.12 27.25
  A 0.93 0.91 -59.6 0 1 131.23 27.49
  L 123.10 25.18
  A 0.43 0.43 0.0 0 1 122.91 24.46
  L 136.78 10.60
  A 0.93 0.92 29.6 0 1 137.66 10.36
  Z"
/>
<path fill="#2491ca" d="
  M 70.75 30.75
  C 42.56 45.14 42.15 83.32 70.29 98.38
  Q 70.73 98.61 70.24 98.56
  C 46.31 95.87 22.09 84.45 7.25 64.95
  A 0.61 0.61 0.0 0 1 7.26 64.20
  C 22.65 44.64 46.30 33.31 70.70 30.58
  Q 71.19 30.52 70.75 30.75
  Z"
/>
<path fill="#2491ca" d="
  M 103.06 30.55
  C 128.12 33.35 153.29 44.92 170.18 63.87
  A 1.13 1.13 0.0 0 1 170.17 65.38
  C 152.64 84.43 128.91 95.56 103.44 98.74
  Q 101.63 98.97 103.27 98.17
  C 131.68 84.46 130.56 45.12 103.01 30.73
  Q 102.56 30.50 103.06 30.55
  Z"
/>
<path fill="#2491ca" d="
  M 111.44 64.61
  A 24.64 24.64 0.0 0 1 86.80 89.25
  A 24.64 24.64 0.0 0 1 62.16 64.61
  A 24.64 24.64 0.0 0 1 86.80 39.97
  A 24.64 24.64 0.0 0 1 111.44 64.61
  Z
  M 103.46 49.80
  A 3.43 3.43 0.0 0 0 100.03 46.37
  A 3.43 3.43 0.0 0 0 96.60 49.80
  A 3.43 3.43 0.0 0 0 100.03 53.23
  A 3.43 3.43 0.0 0 0 103.46 49.80
  Z
  M 96.33 64.61
  A 9.53 9.53 0.0 0 0 86.80 55.08
  A 9.53 9.53 0.0 0 0 77.27 64.61
  A 9.53 9.53 0.0 0 0 86.80 74.14
  A 9.53 9.53 0.0 0 0 96.33 64.61
  Z"
/>
<circle fill="#ffffff" cx="100.03" cy="49.80" r="3.43"/>
<circle fill="#ffffff" cx="86.80" cy="64.61" r="9.53"/>
</svg>
