<?xml version="1.0" encoding="UTF-8" standalone="no"?>
<!DOCTYPE svg PUBLIC "-//W3C//DTD SVG 1.1//EN" "http://www.w3.org/Graphics/SVG/1.1/DTD/svg11.dtd">
<svg xmlns="http://www.w3.org/2000/svg" version="1.1" viewBox="0 0 201 218">
<g stroke-width="2.00" fill="none" stroke-linecap="butt">
<path stroke="#92c8e5" vector-effect="non-scaling-stroke" d="
  M 158.87 104.79
  L 173.36 108.47
  Q 176.82 109.34 177.69 105.89
  Q 180.09 96.44 182.78 86.00
  C 183.61 82.77 181.40 81.98 178.62 82.54
  C 167.74 84.73 163.58 70.10 173.68 66.72
  C 179.19 64.87 180.20 68.16 184.31 69.98
  Q 186.64 71.02 187.27 68.55
  L 192.75 47.19
  Q 193.49 44.31 190.61 43.58
  L 175.69 39.79
  A 0.44 0.44 0.0 0 1 175.38 39.22
  C 182.97 17.89 151.01 11.73 149.18 32.10
  A 0.72 0.71 -80.1 0 1 148.29 32.73
  L 132.93 28.79
  Q 130.65 28.21 130.06 30.49
  Q 127.27 41.19 124.50 51.83
  C 123.47 55.74 125.87 56.63 129.20 55.46
  C 143.58 50.40 144.21 75.96 129.29 71.01
  C 127.12 70.29 125.87 68.66 124.29 67.05
  A 1.54 1.47 70.5 0 0 123.44 66.62
  C 121.57 66.35 120.62 67.41 120.14 69.20
  Q 117.27 80.01 114.69 90.13
  Q 113.92 93.19 116.97 93.98
  L 131.91 97.85
  A 0.48 0.48 0.0 0 1 132.23 98.49
  C 123.58 120.03 154.46 126.54 157.72 108.07
  Q 157.97 106.63 158.24 105.19
  A 0.51 0.51 0.0 0 1 158.87 104.79"
/>
<path stroke="#92c8e5" vector-effect="non-scaling-stroke" d="
  M 90.19 122.44
  L 90.21 112.92
  A 0.44 0.44 0.0 0 1 90.74 112.49
  C 113.13 117.27 114.83 81.94 90.49 85.90
  A 0.43 0.42 85.4 0 1 90.00 85.48
  L 90.00 67.97
  A 1.21 1.20 -67.2 0 0 89.66 67.13
  C 87.35 64.73 77.77 65.87 71.75 65.58
  A 0.48 0.48 0.0 0 1 71.29 65.06
  C 72.93 42.35 40.53 45.24 44.19 64.96
  A 0.68 0.67 84.7 0 1 43.53 65.76
  L 28.01 65.74
  Q 25.26 65.73 25.26 68.49
  L 25.25 85.21
  A 0.46 0.46 0.0 0 1 24.74 85.67
  C 1.98 83.13 3.31 115.98 24.56 112.73
  A 0.51 0.51 0.0 0 1 25.15 113.21
  C 25.56 119.85 24.48 127.02 24.49 132.59
  Q 24.51 140.42 24.51 148.25
  Q 24.51 150.40 26.98 150.93
  A 1.59 1.58 -50.9 0 0 27.93 150.83
  C 29.53 150.11 31.02 148.82 32.56 148.40
  C 40.59 146.24 47.02 155.98 40.62 162.19
  Q 35.15 167.51 28.12 161.93
  A 1.07 1.07 0.0 0 0 27.24 161.72
  Q 24.52 162.26 24.51 164.49
  Q 24.47 175.69 24.54 186.98
  Q 24.55 189.96 27.53 189.97
  L 43.15 190.01
  A 0.45 0.44 -85.9 0 1 43.58 190.51
  C 40.68 215.08 75.26 211.07 70.43 190.98
  A 0.85 0.84 -6.4 0 1 71.26 189.94
  L 101.98 190.31
  A 0.45 0.44 -88.2 0 1 102.42 190.79
  C 100.94 211.90 130.39 213.02 129.81 190.76
  A 0.49 0.48 -0.6 0 1 130.30 190.27
  Q 136.81 190.24 143.34 190.25
  C 147.07 190.25 148.89 189.67 148.49 185.49
  Q 148.26 183.12 148.62 170.67
  A 0.47 0.47 0.0 0 1 149.13 170.21
  C 170.72 172.07 171.95 141.72 149.00 143.01
  A 0.48 0.48 0.0 0 1 148.49 142.53
  L 148.51 126.51
  Q 148.52 123.00 145.01 123.00
  L 120.56 123.02
  Q 118.21 123.02 117.95 125.36
  Q 117.75 127.14 119.61 128.42
  C 131.05 136.29 119.17 149.58 110.58 142.16
  C 104.83 137.17 108.33 131.12 113.47 127.63
  Q 115.21 126.45 114.02 124.72
  Q 113.00 123.25 111.25 123.22
  Q 100.97 123.06 90.68 122.94
  A 0.50 0.49 90.0 0 1 90.19 122.44"
/>
<path stroke="#92c8e5" vector-effect="non-scaling-stroke" d="
  M 135.27 34.94
  A 0.79 0.78 -75.5 0 0 134.32 35.51
  L 130.88 48.79
  A 0.47 0.46 8.6 0 0 131.31 49.36
  C 156.54 50.69 145.03 86.49 124.68 74.75
  A 0.34 0.34 0.0 0 0 124.18 74.96
  L 120.66 88.73
  A 0.57 0.57 0.0 0 0 121.07 89.42
  L 138.23 93.93
  Q 140.43 94.51 140.18 96.77
  C 140.00 98.39 137.91 99.84 137.20 100.98
  C 130.59 111.58 149.54 120.07 152.59 106.47
  C 153.03 104.50 152.05 102.56 151.96 100.44
  A 1.40 1.37 63.8 0 1 152.26 99.52
  Q 153.60 97.83 156.26 98.49
  Q 164.39 100.53 172.42 102.71
  A 0.52 0.52 0.0 0 0 173.06 102.34
  L 176.43 89.23
  A 0.58 0.58 0.0 0 0 176.07 88.54
  C 174.28 87.88 172.49 87.87 170.91 87.14
  C 153.35 79.01 166.79 53.67 182.67 62.46
  A 0.51 0.50 -68.6 0 0 183.40 62.14
  L 186.84 48.56
  A 0.42 0.42 0.0 0 0 186.53 48.05
  Q 178.51 46.01 170.52 43.97
  C 167.60 43.22 167.31 40.99 169.14 38.76
  C 177.21 28.93 160.59 18.94 155.53 29.25
  C 154.36 31.64 154.77 34.75 154.71 37.51
  Q 154.66 39.82 152.42 39.25
  L 135.27 34.94"
/>
<path stroke="#92c8e5" vector-effect="non-scaling-stroke" d="
  M 99.31 92.44
  Q 94.25 89.23 89.33 92.67
  C 86.53 94.63 84.75 92.69 84.76 89.73
  Q 84.80 80.75 84.66 71.61
  A 0.51 0.51 0.0 0 0 84.16 71.10
  Q 75.79 70.91 67.43 71.01
  C 64.67 71.05 64.11 68.94 64.99 66.62
  C 70.89 51.06 46.23 50.43 49.64 64.77
  C 50.13 66.82 52.04 68.61 49.61 70.69
  A 1.34 1.28 -64.1 0 1 48.77 71.00
  L 31.00 71.00
  A 0.50 0.50 0.0 0 0 30.50 71.50
  L 30.50 90.64
  A 1.37 1.36 65.3 0 1 30.18 91.52
  C 29.04 92.86 27.83 92.93 26.16 92.18
  C 10.94 85.34 9.35 109.64 22.48 107.37
  C 25.67 106.82 30.53 103.54 30.51 109.67
  Q 30.48 115.95 30.52 122.25
  A 0.51 0.51 0.0 0 0 31.03 122.75
  L 43.00 122.75
  A 0.47 0.47 0.0 0 0 43.47 122.23
  C 41.54 99.70 73.58 101.88 71.19 122.15
  A 0.54 0.54 0.0 0 0 71.73 122.75
  L 84.24 122.75
  A 0.50 0.49 -0.0 0 0 84.74 122.26
  L 84.77 107.01
  Q 84.78 104.14 87.50 105.05
  Q 89.12 105.60 90.65 106.43
  C 100.07 111.55 107.79 97.81 99.31 92.44"
/>
<path stroke="#92c8e5" vector-effect="non-scaling-stroke" d="
  M 63.93 125.33
  C 70.80 109.11 47.27 106.07 48.90 121.91
  Q 48.94 122.36 49.20 122.73
  Q 50.18 124.13 50.27 125.83
  Q 50.41 128.26 47.99 128.25
  L 30.60 128.23
  A 0.60 0.60 0.0 0 0 30.00 128.83
  L 30.01 142.90
  A 0.33 0.33 0.0 0 0 30.40 143.22
  C 55.38 138.40 53.02 175.50 30.66 169.50
  A 0.52 0.52 0.0 0 0 30.00 170.00
  L 30.00 183.89
  A 0.52 0.52 0.0 0 0 30.51 184.41
  Q 39.26 184.57 47.99 184.50
  Q 50.15 184.48 50.94 186.74
  A 1.40 1.37 -44.4 0 1 50.92 187.68
  C 50.03 189.94 48.55 192.16 48.76 194.55
  C 49.96 208.22 70.85 201.84 64.29 189.91
  C 62.96 187.50 62.58 184.50 66.26 184.51
  Q 74.86 184.52 83.49 184.47
  A 0.52 0.51 -0.6 0 0 84.00 183.96
  L 84.00 170.28
  A 0.44 0.44 0.0 0 0 83.50 169.84
  C 60.87 173.06 61.67 139.30 83.48 142.93
  A 0.45 0.44 -85.1 0 0 84.00 142.49
  L 84.00 128.78
  A 0.50 0.50 0.0 0 0 83.50 128.28
  Q 75.25 128.24 67.05 128.24
  C 65.49 128.24 64.57 127.59 63.95 126.26
  A 1.13 1.13 0.0 0 1 63.93 125.33"
/>
<path stroke="#92c8e5" vector-effect="non-scaling-stroke" d="
  M 87.01 150.62
  C 83.57 151.49 81.28 146.37 76.49 149.03
  C 66.69 154.48 74.78 168.91 83.99 163.50
  C 87.55 161.40 89.54 163.01 89.52 166.96
  Q 89.46 175.56 89.53 184.22
  A 0.51 0.51 0.0 0 0 90.04 184.72
  Q 97.84 184.75 105.63 184.77
  C 108.95 184.78 109.76 186.42 108.66 189.50
  C 102.67 206.15 130.13 204.75 123.43 189.19
  C 122.06 186.02 124.11 184.81 127.02 184.79
  Q 134.84 184.74 142.72 184.72
  A 0.51 0.50 -90.0 0 0 143.22 184.21
  Q 143.25 175.46 143.28 166.71
  C 143.29 162.65 145.49 162.74 148.56 164.21
  C 156.97 168.23 164.79 157.14 157.52 150.44
  Q 153.46 146.70 147.57 149.52
  C 144.75 150.87 143.20 149.24 143.23 146.36
  Q 143.33 137.76 143.16 129.01
  A 0.53 0.52 -0.6 0 0 142.63 128.50
  L 128.31 128.51
  A 0.35 0.34 75.9 0 0 128.01 129.02
  C 134.25 140.83 122.43 154.09 110.09 148.31
  C 103.00 144.99 100.53 136.08 104.06 129.40
  A 0.62 0.62 0.0 0 0 103.51 128.50
  L 90.03 128.50
  A 0.51 0.51 0.0 0 0 89.52 129.01
  Q 89.51 137.75 89.47 146.38
  C 89.46 148.23 88.85 150.16 87.01 150.62"
/>
</g>
<path fill="#ffffff" d="
  M 0.00 0.00
  L 201.00 0.00
  L 201.00 218.00
  L 0.00 218.00
  L 0.00 0.00
  Z
  M 158.87 104.79
  L 173.36 108.47
  Q 176.82 109.34 177.69 105.89
  Q 180.09 96.44 182.78 86.00
  C 183.61 82.77 181.40 81.98 178.62 82.54
  C 167.74 84.73 163.58 70.10 173.68 66.72
  C 179.19 64.87 180.20 68.16 184.31 69.98
  Q 186.64 71.02 187.27 68.55
  L 192.75 47.19
  Q 193.49 44.31 190.61 43.58
  L 175.69 39.79
  A 0.44 0.44 0.0 0 1 175.38 39.22
  C 182.97 17.89 151.01 11.73 149.18 32.10
  A 0.72 0.71 -80.1 0 1 148.29 32.73
  L 132.93 28.79
  Q 130.65 28.21 130.06 30.49
  Q 127.27 41.19 124.50 51.83
  C 123.47 55.74 125.87 56.63 129.20 55.46
  C 143.58 50.40 144.21 75.96 129.29 71.01
  C 127.12 70.29 125.87 68.66 124.29 67.05
  A 1.54 1.47 70.5 0 0 123.44 66.62
  C 121.57 66.35 120.62 67.41 120.14 69.20
  Q 117.27 80.01 114.69 90.13
  Q 113.92 93.19 116.97 93.98
  L 131.91 97.85
  A 0.48 0.48 0.0 0 1 132.23 98.49
  C 123.58 120.03 154.46 126.54 157.72 108.07
  Q 157.97 106.63 158.24 105.19
  A 0.51 0.51 0.0 0 1 158.87 104.79
  Z
  M 90.19 122.44
  L 90.21 112.92
  A 0.44 0.44 0.0 0 1 90.74 112.49
  C 113.13 117.27 114.83 81.94 90.49 85.90
  A 0.43 0.42 85.4 0 1 90.00 85.48
  L 90.00 67.97
  A 1.21 1.20 -67.2 0 0 89.66 67.13
  C 87.35 64.73 77.77 65.87 71.75 65.58
  A 0.48 0.48 0.0 0 1 71.29 65.06
  C 72.93 42.35 40.53 45.24 44.19 64.96
  A 0.68 0.67 84.7 0 1 43.53 65.76
  L 28.01 65.74
  Q 25.26 65.73 25.26 68.49
  L 25.25 85.21
  A 0.46 0.46 0.0 0 1 24.74 85.67
  C 1.98 83.13 3.31 115.98 24.56 112.73
  A 0.51 0.51 0.0 0 1 25.15 113.21
  C 25.56 119.85 24.48 127.02 24.49 132.59
  Q 24.51 140.42 24.51 148.25
  Q 24.51 150.40 26.98 150.93
  A 1.59 1.58 -50.9 0 0 27.93 150.83
  C 29.53 150.11 31.02 148.82 32.56 148.40
  C 40.59 146.24 47.02 155.98 40.62 162.19
  Q 35.15 167.51 28.12 161.93
  A 1.07 1.07 0.0 0 0 27.24 161.72
  Q 24.52 162.26 24.51 164.49
  Q 24.47 175.69 24.54 186.98
  Q 24.55 189.96 27.53 189.97
  L 43.15 190.01
  A 0.45 0.44 -85.9 0 1 43.58 190.51
  C 40.68 215.08 75.26 211.07 70.43 190.98
  A 0.85 0.84 -6.4 0 1 71.26 189.94
  L 101.98 190.31
  A 0.45 0.44 -88.2 0 1 102.42 190.79
  C 100.94 211.90 130.39 213.02 129.81 190.76
  A 0.49 0.48 -0.6 0 1 130.30 190.27
  Q 136.81 190.24 143.34 190.25
  C 147.07 190.25 148.89 189.67 148.49 185.49
  Q 148.26 183.12 148.62 170.67
  A 0.47 0.47 0.0 0 1 149.13 170.21
  C 170.72 172.07 171.95 141.72 149.00 143.01
  A 0.48 0.48 0.0 0 1 148.49 142.53
  L 148.51 126.51
  Q 148.52 123.00 145.01 123.00
  L 120.56 123.02
  Q 118.21 123.02 117.95 125.36
  Q 117.75 127.14 119.61 128.42
  C 131.05 136.29 119.17 149.58 110.58 142.16
  C 104.83 137.17 108.33 131.12 113.47 127.63
  Q 115.21 126.45 114.02 124.72
  Q 113.00 123.25 111.25 123.22
  Q 100.97 123.06 90.68 122.94
  A 0.50 0.49 90.0 0 1 90.19 122.44
  Z"
/>
<path fill="#2491ca" d="
  M 158.24 105.19
  Q 157.97 106.63 157.72 108.07
  C 154.46 126.54 123.58 120.03 132.23 98.49
  A 0.48 0.48 0.0 0 0 131.91 97.85
  L 116.97 93.98
  Q 113.92 93.19 114.69 90.13
  Q 117.27 80.01 120.14 69.20
  C 120.62 67.41 121.57 66.35 123.44 66.62
  A 1.54 1.47 70.5 0 1 124.29 67.05
  C 125.87 68.66 127.12 70.29 129.29 71.01
  C 144.21 75.96 143.58 50.40 129.20 55.46
  C 125.87 56.63 123.47 55.74 124.50 51.83
  Q 127.27 41.19 130.06 30.49
  Q 130.65 28.21 132.93 28.79
  L 148.29 32.73
  A 0.72 0.71 -80.1 0 0 149.18 32.10
  C 151.01 11.73 182.97 17.89 175.38 39.22
  A 0.44 0.44 0.0 0 0 175.69 39.79
  L 190.61 43.58
  Q 193.49 44.31 192.75 47.19
  L 187.27 68.55
  Q 186.64 71.02 184.31 69.98
  C 180.20 68.16 179.19 64.87 173.68 66.72
  C 163.58 70.10 167.74 84.73 178.62 82.54
  C 181.40 81.98 183.61 82.77 182.78 86.00
  Q 180.09 96.44 177.69 105.89
  Q 176.82 109.34 173.36 108.47
  L 158.87 104.79
  A 0.51 0.51 0.0 0 0 158.24 105.19
  Z
  M 135.27 34.94
  A 0.79 0.78 -75.5 0 0 134.32 35.51
  L 130.88 48.79
  A 0.47 0.46 8.6 0 0 131.31 49.36
  C 156.54 50.69 145.03 86.49 124.68 74.75
  A 0.34 0.34 0.0 0 0 124.18 74.96
  L 120.66 88.73
  A 0.57 0.57 0.0 0 0 121.07 89.42
  L 138.23 93.93
  Q 140.43 94.51 140.18 96.77
  C 140.00 98.39 137.91 99.84 137.20 100.98
  C 130.59 111.58 149.54 120.07 152.59 106.47
  C 153.03 104.50 152.05 102.56 151.96 100.44
  A 1.40 1.37 63.8 0 1 152.26 99.52
  Q 153.60 97.83 156.26 98.49
  Q 164.39 100.53 172.42 102.71
  A 0.52 0.52 0.0 0 0 173.06 102.34
  L 176.43 89.23
  A 0.58 0.58 0.0 0 0 176.07 88.54
  C 174.28 87.88 172.49 87.87 170.91 87.14
  C 153.35 79.01 166.79 53.67 182.67 62.46
  A 0.51 0.50 -68.6 0 0 183.40 62.14
  L 186.84 48.56
  A 0.42 0.42 0.0 0 0 186.53 48.05
  Q 178.51 46.01 170.52 43.97
  C 167.60 43.22 167.31 40.99 169.14 38.76
  C 177.21 28.93 160.59 18.94 155.53 29.25
  C 154.36 31.64 154.77 34.75 154.71 37.51
  Q 154.66 39.82 152.42 39.25
  L 135.27 34.94
  Z"
/>
<path fill="#ffffff" d="
  M 135.27 34.94
  L 152.42 39.25
  Q 154.66 39.82 154.71 37.51
  C 154.77 34.75 154.36 31.64 155.53 29.25
  C 160.59 18.94 177.21 28.93 169.14 38.76
  C 167.31 40.99 167.60 43.22 170.52 43.97
  Q 178.51 46.01 186.53 48.05
  A 0.42 0.42 0.0 0 1 186.84 48.56
  L 183.40 62.14
  A 0.51 0.50 -68.6 0 1 182.67 62.46
  C 166.79 53.67 153.35 79.01 170.91 87.14
  C 172.49 87.87 174.28 87.88 176.07 88.54
  A 0.58 0.58 0.0 0 1 176.43 89.23
  L 173.06 102.34
  A 0.52 0.52 0.0 0 1 172.42 102.71
  Q 164.39 100.53 156.26 98.49
  Q 153.60 97.83 152.26 99.52
  A 1.40 1.37 63.8 0 0 151.96 100.44
  C 152.05 102.56 153.03 104.50 152.59 106.47
  C 149.54 120.07 130.59 111.58 137.20 100.98
  C 137.91 99.84 140.00 98.39 140.18 96.77
  Q 140.43 94.51 138.23 93.93
  L 121.07 89.42
  A 0.57 0.57 0.0 0 1 120.66 88.73
  L 124.18 74.96
  A 0.34 0.34 0.0 0 1 124.68 74.75
  C 145.03 86.49 156.54 50.69 131.31 49.36
  A 0.47 0.46 8.6 0 1 130.88 48.79
  L 134.32 35.51
  A 0.79 0.78 -75.5 0 1 135.27 34.94
  Z"
/>
<path fill="#2491ca" d="
  M 90.68 122.94
  Q 100.97 123.06 111.25 123.22
  Q 113.00 123.25 114.02 124.72
  Q 115.21 126.45 113.47 127.63
  C 108.33 131.12 104.83 137.17 110.58 142.16
  C 119.17 149.58 131.05 136.29 119.61 128.42
  Q 117.75 127.14 117.95 125.36
  Q 118.21 123.02 120.56 123.02
  L 145.01 123.00
  Q 148.52 123.00 148.51 126.51
  L 148.49 142.53
  A 0.48 0.48 0.0 0 0 149.00 143.01
  C 171.95 141.72 170.72 172.07 149.13 170.21
  A 0.47 0.47 0.0 0 0 148.62 170.67
  Q 148.26 183.12 148.49 185.49
  C 148.89 189.67 147.07 190.25 143.34 190.25
  Q 136.81 190.24 130.30 190.27
  A 0.49 0.48 -0.6 0 0 129.81 190.76
  C 130.39 213.02 100.94 211.90 102.42 190.79
  A 0.45 0.44 -88.2 0 0 101.98 190.31
  L 71.26 189.94
  A 0.85 0.84 -6.4 0 0 70.43 190.98
  C 75.26 211.07 40.68 215.08 43.58 190.51
  A 0.45 0.44 -85.9 0 0 43.15 190.01
  L 27.53 189.97
  Q 24.55 189.96 24.54 186.98
  Q 24.47 175.69 24.51 164.49
  Q 24.52 162.26 27.24 161.72
  A 1.07 1.07 0.0 0 1 28.12 161.93
  Q 35.15 167.51 40.62 162.19
  C 47.02 155.98 40.59 146.24 32.56 148.40
  C 31.02 148.82 29.53 150.11 27.93 150.83
  A 1.59 1.58 -50.9 0 1 26.98 150.93
  Q 24.51 150.40 24.51 148.25
  Q 24.51 140.42 24.49 132.59
  C 24.48 127.02 25.56 119.85 25.15 113.21
  A 0.51 0.51 0.0 0 0 24.56 112.73
  C 3.31 115.98 1.98 83.13 24.74 85.67
  A 0.46 0.46 0.0 0 0 25.25 85.21
  L 25.26 68.49
  Q 25.26 65.73 28.01 65.74
  L 43.53 65.76
  A 0.68 0.67 84.7 0 0 44.19 64.96
  C 40.53 45.24 72.93 42.35 71.29 65.06
  A 0.48 0.48 0.0 0 0 71.75 65.58
  C 77.77 65.87 87.35 64.73 89.66 67.13
  A 1.21 1.20 -67.2 0 1 90.00 67.97
  L 90.00 85.48
  A 0.43 0.42 85.4 0 0 90.49 85.90
  C 114.83 81.94 113.13 117.27 90.74 112.49
  A 0.44 0.44 0.0 0 0 90.21 112.92
  L 90.19 122.44
  A 0.50 0.49 90.0 0 0 90.68 122.94
  Z
  M 99.31 92.44
  Q 94.25 89.23 89.33 92.67
  C 86.53 94.63 84.75 92.69 84.76 89.73
  Q 84.80 80.75 84.66 71.61
  A 0.51 0.51 0.0 0 0 84.16 71.10
  Q 75.79 70.91 67.43 71.01
  C 64.67 71.05 64.11 68.94 64.99 66.62
  C 70.89 51.06 46.23 50.43 49.64 64.77
  C 50.13 66.82 52.04 68.61 49.61 70.69
  A 1.34 1.28 -64.1 0 1 48.77 71.00
  L 31.00 71.00
  A 0.50 0.50 0.0 0 0 30.50 71.50
  L 30.50 90.64
  A 1.37 1.36 65.3 0 1 30.18 91.52
  C 29.04 92.86 27.83 92.93 26.16 92.18
  C 10.94 85.34 9.35 109.64 22.48 107.37
  C 25.67 106.82 30.53 103.54 30.51 109.67
  Q 30.48 115.95 30.52 122.25
  A 0.51 0.51 0.0 0 0 31.03 122.75
  L 43.00 122.75
  A 0.47 0.47 0.0 0 0 43.47 122.23
  C 41.54 99.70 73.58 101.88 71.19 122.15
  A 0.54 0.54 0.0 0 0 71.73 122.75
  L 84.24 122.75
  A 0.50 0.49 -0.0 0 0 84.74 122.26
  L 84.77 107.01
  Q 84.78 104.14 87.50 105.05
  Q 89.12 105.60 90.65 106.43
  C 100.07 111.55 107.79 97.81 99.31 92.44
  Z
  M 63.93 125.33
  C 70.80 109.11 47.27 106.07 48.90 121.91
  Q 48.94 122.36 49.20 122.73
  Q 50.18 124.13 50.27 125.83
  Q 50.41 128.26 47.99 128.25
  L 30.60 128.23
  A 0.60 0.60 0.0 0 0 30.00 128.83
  L 30.01 142.90
  A 0.33 0.33 0.0 0 0 30.40 143.22
  C 55.38 138.40 53.02 175.50 30.66 169.50
  A 0.52 0.52 0.0 0 0 30.00 170.00
  L 30.00 183.89
  A 0.52 0.52 0.0 0 0 30.51 184.41
  Q 39.26 184.57 47.99 184.50
  Q 50.15 184.48 50.94 186.74
  A 1.40 1.37 -44.4 0 1 50.92 187.68
  C 50.03 189.94 48.55 192.16 48.76 194.55
  C 49.96 208.22 70.85 201.84 64.29 189.91
  C 62.96 187.50 62.58 184.50 66.26 184.51
  Q 74.86 184.52 83.49 184.47
  A 0.52 0.51 -0.6 0 0 84.00 183.96
  L 84.00 170.28
  A 0.44 0.44 0.0 0 0 83.50 169.84
  C 60.87 173.06 61.67 139.30 83.48 142.93
  A 0.45 0.44 -85.1 0 0 84.00 142.49
  L 84.00 128.78
  A 0.50 0.50 0.0 0 0 83.50 128.28
  Q 75.25 128.24 67.05 128.24
  C 65.49 128.24 64.57 127.59 63.95 126.26
  A 1.13 1.13 0.0 0 1 63.93 125.33
  Z
  M 87.01 150.62
  C 83.57 151.49 81.28 146.37 76.49 149.03
  C 66.69 154.48 74.78 168.91 83.99 163.50
  C 87.55 161.40 89.54 163.01 89.52 166.96
  Q 89.46 175.56 89.53 184.22
  A 0.51 0.51 0.0 0 0 90.04 184.72
  Q 97.84 184.75 105.63 184.77
  C 108.95 184.78 109.76 186.42 108.66 189.50
  C 102.67 206.15 130.13 204.75 123.43 189.19
  C 122.06 186.02 124.11 184.81 127.02 184.79
  Q 134.84 184.74 142.72 184.72
  A 0.51 0.50 -90.0 0 0 143.22 184.21
  Q 143.25 175.46 143.28 166.71
  C 143.29 162.65 145.49 162.74 148.56 164.21
  C 156.97 168.23 164.79 157.14 157.52 150.44
  Q 153.46 146.70 147.57 149.52
  C 144.75 150.87 143.20 149.24 143.23 146.36
  Q 143.33 137.76 143.16 129.01
  A 0.53 0.52 -0.6 0 0 142.63 128.50
  L 128.31 128.51
  A 0.35 0.34 75.9 0 0 128.01 129.02
  C 134.25 140.83 122.43 154.09 110.09 148.31
  C 103.00 144.99 100.53 136.08 104.06 129.40
  A 0.62 0.62 0.0 0 0 103.51 128.50
  L 90.03 128.50
  A 0.51 0.51 0.0 0 0 89.52 129.01
  Q 89.51 137.75 89.47 146.38
  C 89.46 148.23 88.85 150.16 87.01 150.62
  Z"
/>
<path fill="#ffffff" d="
  M 99.31 92.44
  C 107.79 97.81 100.07 111.55 90.65 106.43
  Q 89.12 105.60 87.50 105.05
  Q 84.78 104.14 84.77 107.01
  L 84.74 122.26
  A 0.50 0.49 -0.0 0 1 84.24 122.75
  L 71.73 122.75
  A 0.54 0.54 0.0 0 1 71.19 122.15
  C 73.58 101.88 41.54 99.70 43.47 122.23
  A 0.47 0.47 0.0 0 1 43.00 122.75
  L 31.03 122.75
  A 0.51 0.51 0.0 0 1 30.52 122.25
  Q 30.48 115.95 30.51 109.67
  C 30.53 103.54 25.67 106.82 22.48 107.37
  C 9.35 109.64 10.94 85.34 26.16 92.18
  C 27.83 92.93 29.04 92.86 30.18 91.52
  A 1.37 1.36 65.3 0 0 30.50 90.64
  L 30.50 71.50
  A 0.50 0.50 0.0 0 1 31.00 71.00
  L 48.77 71.00
  A 1.34 1.28 -64.1 0 0 49.61 70.69
  C 52.04 68.61 50.13 66.82 49.64 64.77
  C 46.23 50.43 70.89 51.06 64.99 66.62
  C 64.11 68.94 64.67 71.05 67.43 71.01
  Q 75.79 70.91 84.16 71.10
  A 0.51 0.51 0.0 0 1 84.66 71.61
  Q 84.80 80.75 84.76 89.73
  C 84.75 92.69 86.53 94.63 89.33 92.67
  Q 94.25 89.23 99.31 92.44
  Z"
/>
<path fill="#ffffff" d="
  M 63.95 126.26
  C 64.57 127.59 65.49 128.24 67.05 128.24
  Q 75.25 128.24 83.50 128.28
  A 0.50 0.50 0.0 0 1 84.00 128.78
  L 84.00 142.49
  A 0.45 0.44 -85.1 0 1 83.48 142.93
  C 61.67 139.30 60.87 173.06 83.50 169.84
  A 0.44 0.44 0.0 0 1 84.00 170.28
  L 84.00 183.96
  A 0.52 0.51 -0.6 0 1 83.49 184.47
  Q 74.86 184.52 66.26 184.51
  C 62.58 184.50 62.96 187.50 64.29 189.91
  C 70.85 201.84 49.96 208.22 48.76 194.55
  C 48.55 192.16 50.03 189.94 50.92 187.68
  A 1.40 1.37 -44.4 0 0 50.94 186.74
  Q 50.15 184.48 47.99 184.50
  Q 39.26 184.57 30.51 184.41
  A 0.52 0.52 0.0 0 1 30.00 183.89
  L 30.00 170.00
  A 0.52 0.52 0.0 0 1 30.66 169.50
  C 53.02 175.50 55.38 138.40 30.40 143.22
  A 0.33 0.33 0.0 0 1 30.01 142.90
  L 30.00 128.83
  A 0.60 0.60 0.0 0 1 30.60 128.23
  L 47.99 128.25
  Q 50.41 128.26 50.27 125.83
  Q 50.18 124.13 49.20 122.73
  Q 48.94 122.36 48.90 121.91
  C 47.27 106.07 70.80 109.11 63.93 125.33
  A 1.13 1.13 0.0 0 0 63.95 126.26
  Z"
/>
<path fill="#ffffff" d="
  M 87.01 150.62
  C 88.85 150.16 89.46 148.23 89.47 146.38
  Q 89.51 137.75 89.52 129.01
  A 0.51 0.51 0.0 0 1 90.03 128.50
  L 103.51 128.50
  A 0.62 0.62 0.0 0 1 104.06 129.40
  C 100.53 136.08 103.00 144.99 110.09 148.31
  C 122.43 154.09 134.25 140.83 128.01 129.02
  A 0.35 0.34 75.9 0 1 128.31 128.51
  L 142.63 128.50
  A 0.53 0.52 -0.6 0 1 143.16 129.01
  Q 143.33 137.76 143.23 146.36
  C 143.20 149.24 144.75 150.87 147.57 149.52
  Q 153.46 146.70 157.52 150.44
  C 164.79 157.14 156.97 168.23 148.56 164.21
  C 145.49 162.74 143.29 162.65 143.28 166.71
  Q 143.25 175.46 143.22 184.21
  A 0.51 0.50 -90.0 0 1 142.72 184.72
  Q 134.84 184.74 127.02 184.79
  C 124.11 184.81 122.06 186.02 123.43 189.19
  C 130.13 204.75 102.67 206.15 108.66 189.50
  C 109.76 186.42 108.95 184.78 105.63 184.77
  Q 97.84 184.75 90.04 184.72
  A 0.51 0.51 0.0 0 1 89.53 184.22
  Q 89.46 175.56 89.52 166.96
  C 89.54 163.01 87.55 161.40 83.99 163.50
  C 74.78 168.91 66.69 154.48 76.49 149.03
  C 81.28 146.37 83.57 151.49 87.01 150.62
  Z"
/>
</svg>
